<svg width="1304" height="803" viewBox="0 0 1304 803" fill="none" xmlns="http://www.w3.org/2000/svg">
<rect x="510" y="0.5" width="258" height="55" rx="13.5" fill="url(#paint0_linear_2073_169)"/>
<rect x="510" y="0.5" width="258" height="55" rx="13.5" stroke="url(#paint1_linear_2073_169)"/>
<path d="M545.08 35.179C544.279 35.179 543.559 35.0256 542.92 34.7188C542.285 34.4077 541.778 33.9815 541.398 33.4403C541.019 32.8991 540.817 32.2812 540.791 31.5866H542.709C542.756 32.1491 543.005 32.6115 543.457 32.9737C543.908 33.3359 544.45 33.517 545.08 33.517C545.583 33.517 546.028 33.402 546.416 33.1719C546.808 32.9375 547.115 32.6158 547.337 32.2067C547.563 31.7976 547.675 31.331 547.675 30.8068C547.675 30.2741 547.56 29.799 547.33 29.3814C547.1 28.9638 546.783 28.6357 546.378 28.397C545.977 28.1584 545.517 28.0369 544.997 28.0327C544.601 28.0327 544.202 28.1009 543.802 28.2372C543.401 28.3736 543.077 28.5526 542.83 28.7741L541.021 28.5057L541.756 21.9091H548.954V23.603H543.399L542.984 27.2656H543.06C543.316 27.0185 543.655 26.8118 544.077 26.6456C544.503 26.4794 544.959 26.3963 545.445 26.3963C546.241 26.3963 546.951 26.5859 547.573 26.9652C548.2 27.3445 548.692 27.8622 549.05 28.5185C549.412 29.1705 549.591 29.9205 549.587 30.7685C549.591 31.6165 549.399 32.3729 549.011 33.0376C548.628 33.7024 548.095 34.2266 547.413 34.6101C546.736 34.9893 545.958 35.179 545.08 35.179ZM558.274 32.5455V31.8551C558.274 31.3608 558.377 30.9091 558.581 30.5C558.79 30.0866 559.093 29.7564 559.489 29.5092C559.889 29.2578 560.373 29.1321 560.94 29.1321C561.519 29.1321 562.005 29.2557 562.397 29.5028C562.789 29.75 563.086 30.0803 563.286 30.4936C563.49 30.907 563.593 31.3608 563.593 31.8551V32.5455C563.593 33.0398 563.49 33.4936 563.286 33.907C563.081 34.3161 562.781 34.6463 562.385 34.8977C561.992 35.1449 561.511 35.2685 560.94 35.2685C560.365 35.2685 559.879 35.1449 559.483 34.8977C559.086 34.6463 558.786 34.3161 558.581 33.907C558.377 33.4936 558.274 33.0398 558.274 32.5455ZM559.764 31.8551V32.5455C559.764 32.9119 559.851 33.2443 560.026 33.5426C560.201 33.8409 560.505 33.9901 560.94 33.9901C561.37 33.9901 561.671 33.8409 561.841 33.5426C562.012 33.2443 562.097 32.9119 562.097 32.5455V31.8551C562.097 31.4886 562.014 31.1562 561.848 30.858C561.686 30.5597 561.383 30.4105 560.94 30.4105C560.514 30.4105 560.211 30.5597 560.032 30.858C559.853 31.1562 559.764 31.4886 559.764 31.8551ZM551.691 25.054V24.3636C551.691 23.8693 551.793 23.4155 551.997 23.0021C552.206 22.5888 552.509 22.2585 552.905 22.0114C553.306 21.7642 553.789 21.6406 554.356 21.6406C554.936 21.6406 555.421 21.7642 555.814 22.0114C556.206 22.2585 556.502 22.5888 556.702 23.0021C556.902 23.4155 557.002 23.8693 557.002 24.3636V25.054C557.002 25.5483 556.9 26.0021 556.696 26.4155C556.495 26.8246 556.197 27.1548 555.801 27.4062C555.409 27.6534 554.927 27.777 554.356 27.777C553.777 27.777 553.289 27.6534 552.892 27.4062C552.5 27.1548 552.202 26.8246 551.997 26.4155C551.793 26.0021 551.691 25.5483 551.691 25.054ZM553.186 24.3636V25.054C553.186 25.4205 553.272 25.7528 553.442 26.0511C553.617 26.3494 553.921 26.4986 554.356 26.4986C554.782 26.4986 555.081 26.3494 555.251 26.0511C555.426 25.7528 555.513 25.4205 555.513 25.054V24.3636C555.513 23.9972 555.43 23.6648 555.264 23.3665C555.098 23.0682 554.795 22.919 554.356 22.919C553.93 22.919 553.627 23.0682 553.448 23.3665C553.274 23.6648 553.186 23.9972 553.186 24.3636ZM552.298 35L561.298 21.9091H562.826L553.826 35H552.298ZM575.962 27.6236V29.2855H570.158V27.6236H575.962ZM581.82 23.6094V21.9091H591.952V23.6094H587.867V35H585.898V23.6094H581.82ZM596.365 35.1982C595.398 35.1982 594.564 34.9915 593.866 34.5781C593.171 34.1605 592.634 33.5746 592.255 32.8203C591.88 32.0618 591.692 31.1733 591.692 30.1548C591.692 29.1491 591.88 28.2628 592.255 27.4957C592.634 26.7287 593.162 26.13 593.84 25.6996C594.522 25.2692 595.319 25.054 596.231 25.054C596.785 25.054 597.322 25.1456 597.841 25.3288C598.361 25.5121 598.828 25.7997 599.241 26.1918C599.655 26.5838 599.981 27.093 600.219 27.7195C600.458 28.3416 600.577 29.098 600.577 29.9886V30.6662H592.773V29.2344H598.704C598.704 28.7315 598.602 28.2862 598.398 27.8984C598.193 27.5064 597.905 27.1974 597.535 26.9716C597.168 26.7457 596.738 26.6328 596.243 26.6328C595.706 26.6328 595.238 26.7649 594.837 27.0291C594.441 27.2891 594.134 27.63 593.917 28.0518C593.704 28.4695 593.597 28.9233 593.597 29.4134V30.532C593.597 31.1882 593.712 31.7464 593.942 32.2067C594.177 32.6669 594.503 33.0185 594.92 33.2614C595.338 33.5 595.826 33.6193 596.384 33.6193C596.746 33.6193 597.076 33.5682 597.375 33.4659C597.673 33.3594 597.931 33.2017 598.148 32.9929C598.366 32.7841 598.532 32.5263 598.647 32.2195L600.456 32.5455C600.311 33.0781 600.051 33.5447 599.676 33.9453C599.305 34.3416 598.839 34.6506 598.276 34.8722C597.718 35.0895 597.081 35.1982 596.365 35.1982ZM605.075 35.2173C604.453 35.2173 603.89 35.1023 603.388 34.8722C602.885 34.6378 602.486 34.299 602.192 33.8558C601.902 33.4126 601.758 32.8693 601.758 32.2259C601.758 31.6719 601.864 31.2159 602.077 30.858C602.29 30.5 602.578 30.2166 602.94 30.0078C603.302 29.799 603.707 29.6413 604.155 29.5348C604.602 29.4283 605.058 29.3473 605.522 29.2919C606.111 29.2237 606.588 29.1683 606.954 29.1257C607.321 29.0788 607.587 29.0043 607.753 28.902C607.919 28.7997 608.003 28.6335 608.003 28.4034V28.3587C608.003 27.8004 607.845 27.3679 607.53 27.0611C607.218 26.7543 606.754 26.6009 606.136 26.6009C605.493 26.6009 604.986 26.7436 604.615 27.0291C604.248 27.3104 603.995 27.6236 603.854 27.9688L602.058 27.5597C602.271 26.9631 602.582 26.4815 602.991 26.1151C603.405 25.7443 603.88 25.4759 604.417 25.3097C604.954 25.1392 605.518 25.054 606.111 25.054C606.503 25.054 606.918 25.1009 607.357 25.1946C607.8 25.2841 608.214 25.4503 608.597 25.6932C608.985 25.9361 609.302 26.2834 609.549 26.7351C609.797 27.1825 609.92 27.7642 609.92 28.4801V35H608.054V33.6577H607.977C607.853 33.9048 607.668 34.1477 607.421 34.3864C607.174 34.625 606.856 34.8232 606.468 34.9808C606.081 35.1385 605.616 35.2173 605.075 35.2173ZM605.49 33.6832C606.019 33.6832 606.471 33.5788 606.846 33.37C607.225 33.1612 607.513 32.8885 607.709 32.5518C607.909 32.2109 608.009 31.8466 608.009 31.4588V30.1932C607.941 30.2614 607.809 30.3253 607.613 30.3849C607.421 30.4403 607.201 30.4893 606.954 30.532C606.707 30.5703 606.466 30.6065 606.232 30.6406C605.998 30.6705 605.802 30.696 605.644 30.7173C605.273 30.7642 604.934 30.843 604.628 30.9538C604.325 31.0646 604.082 31.2244 603.899 31.4332C603.72 31.6378 603.63 31.9105 603.63 32.2514C603.63 32.7244 603.805 33.0824 604.155 33.3253C604.504 33.5639 604.949 33.6832 605.49 33.6832ZM611.986 35V25.1818H613.82V26.7798H613.942C614.146 26.2386 614.481 25.8168 614.945 25.5142C615.41 25.2074 615.966 25.054 616.614 25.054C617.27 25.054 617.82 25.2074 618.263 25.5142C618.71 25.821 619.041 26.2429 619.254 26.7798H619.356C619.59 26.2557 619.963 25.8381 620.474 25.527C620.986 25.2116 621.595 25.054 622.303 25.054C623.193 25.054 623.92 25.3331 624.482 25.8913C625.049 26.4496 625.332 27.2912 625.332 28.4162V35H623.421V28.5952C623.421 27.9304 623.24 27.4489 622.878 27.1506C622.516 26.8523 622.083 26.7031 621.58 26.7031C620.958 26.7031 620.474 26.8949 620.129 27.2784C619.784 27.6577 619.612 28.1456 619.612 28.7422V35H617.707V28.4737C617.707 27.9411 617.541 27.5128 617.208 27.1889C616.876 26.8651 616.443 26.7031 615.911 26.7031C615.548 26.7031 615.214 26.799 614.907 26.9908C614.604 27.1783 614.359 27.4403 614.172 27.777C613.989 28.1136 613.897 28.5036 613.897 28.9467V35H611.986ZM634.555 35.2173C633.933 35.2173 633.37 35.1023 632.867 34.8722C632.365 34.6378 631.966 34.299 631.672 33.8558C631.382 33.4126 631.237 32.8693 631.237 32.2259C631.237 31.6719 631.344 31.2159 631.557 30.858C631.77 30.5 632.058 30.2166 632.42 30.0078C632.782 29.799 633.187 29.6413 633.634 29.5348C634.082 29.4283 634.538 29.3473 635.002 29.2919C635.59 29.2237 636.068 29.1683 636.434 29.1257C636.801 29.0788 637.067 29.0043 637.233 28.902C637.399 28.7997 637.482 28.6335 637.482 28.4034V28.3587C637.482 27.8004 637.325 27.3679 637.009 27.0611C636.698 26.7543 636.234 26.6009 635.616 26.6009C634.973 26.6009 634.465 26.7436 634.095 27.0291C633.728 27.3104 633.475 27.6236 633.334 27.9688L631.538 27.5597C631.751 26.9631 632.062 26.4815 632.471 26.1151C632.884 25.7443 633.36 25.4759 633.897 25.3097C634.433 25.1392 634.998 25.054 635.59 25.054C635.982 25.054 636.398 25.1009 636.837 25.1946C637.28 25.2841 637.693 25.4503 638.077 25.6932C638.465 25.9361 638.782 26.2834 639.029 26.7351C639.277 27.1825 639.4 27.7642 639.4 28.4801V35H637.534V33.6577H637.457C637.333 33.9048 637.148 34.1477 636.901 34.3864C636.654 34.625 636.336 34.8232 635.948 34.9808C635.561 35.1385 635.096 35.2173 634.555 35.2173ZM634.97 33.6832C635.499 33.6832 635.951 33.5788 636.326 33.37C636.705 33.1612 636.992 32.8885 637.188 32.5518C637.389 32.2109 637.489 31.8466 637.489 31.4588V30.1932C637.421 30.2614 637.289 30.3253 637.093 30.3849C636.901 30.4403 636.681 30.4893 636.434 30.532C636.187 30.5703 635.946 30.6065 635.712 30.6406C635.478 30.6705 635.281 30.696 635.124 30.7173C634.753 30.7642 634.414 30.843 634.107 30.9538C633.805 31.0646 633.562 31.2244 633.379 31.4332C633.2 31.6378 633.11 31.9105 633.11 32.2514C633.11 32.7244 633.285 33.0824 633.634 33.3253C633.984 33.5639 634.429 33.6832 634.97 33.6832ZM643.377 29.1705V35H641.466V25.1818H643.3V26.7798H643.422C643.648 26.2599 644.001 25.8423 644.483 25.527C644.969 25.2116 645.58 25.054 646.317 25.054C646.986 25.054 647.572 25.1946 648.075 25.4759C648.578 25.7528 648.968 26.1662 649.245 26.7159C649.522 27.2656 649.66 27.9453 649.66 28.755V35H647.749V28.9851C647.749 28.2734 647.564 27.7173 647.193 27.3168C646.822 26.9119 646.313 26.7095 645.665 26.7095C645.222 26.7095 644.828 26.8054 644.483 26.9972C644.142 27.1889 643.871 27.4702 643.671 27.8409C643.475 28.2074 643.377 28.6506 643.377 29.1705ZM655.419 35.1918C654.626 35.1918 653.919 34.9893 653.297 34.5845C652.679 34.1754 652.193 33.5937 651.839 32.8395C651.49 32.081 651.315 31.1712 651.315 30.1101C651.315 29.049 651.492 28.1413 651.846 27.3871C652.204 26.6328 652.694 26.0554 653.316 25.6548C653.938 25.2543 654.643 25.054 655.432 25.054C656.041 25.054 656.531 25.1562 656.902 25.3608C657.277 25.5611 657.567 25.7955 657.771 26.0639C657.98 26.3324 658.142 26.5689 658.257 26.7734H658.372V21.9091H660.283V35H658.417V33.4723H658.257C658.142 33.6811 657.976 33.9197 657.758 34.1882C657.545 34.4567 657.251 34.6911 656.876 34.8913C656.501 35.0916 656.016 35.1918 655.419 35.1918ZM655.841 33.5618C656.391 33.5618 656.855 33.4169 657.234 33.1271C657.618 32.8331 657.908 32.4261 658.104 31.9062C658.304 31.3864 658.404 30.7812 658.404 30.0909C658.404 29.4091 658.306 28.8125 658.11 28.3011C657.914 27.7898 657.626 27.3913 657.247 27.1058C656.868 26.8203 656.399 26.6776 655.841 26.6776C655.266 26.6776 654.786 26.8267 654.403 27.125C654.019 27.4233 653.729 27.8303 653.533 28.3459C653.342 28.8615 653.246 29.4432 653.246 30.0909C653.246 30.7472 653.344 31.3374 653.54 31.8615C653.736 32.3857 654.026 32.8011 654.409 33.108C654.797 33.4105 655.274 33.5618 655.841 33.5618ZM668.074 35H665.977L670.688 21.9091H672.97L677.681 35H675.585L671.884 24.2869H671.781L668.074 35ZM668.426 29.8736H675.227V31.5355H668.426V29.8736ZM682.456 35.1918C681.663 35.1918 680.956 34.9893 680.333 34.5845C679.715 34.1754 679.23 33.5937 678.876 32.8395C678.527 32.081 678.352 31.1712 678.352 30.1101C678.352 29.049 678.529 28.1413 678.882 27.3871C679.24 26.6328 679.73 26.0554 680.353 25.6548C680.975 25.2543 681.68 25.054 682.468 25.054C683.078 25.054 683.568 25.1562 683.938 25.3608C684.313 25.5611 684.603 25.7955 684.808 26.0639C685.017 26.3324 685.179 26.5689 685.294 26.7734H685.409V21.9091H687.32V35H685.453V33.4723H685.294C685.179 33.6811 685.012 33.9197 684.795 34.1882C684.582 34.4567 684.288 34.6911 683.913 34.8913C683.538 35.0916 683.052 35.1918 682.456 35.1918ZM682.877 33.5618C683.427 33.5618 683.892 33.4169 684.271 33.1271C684.654 32.8331 684.944 32.4261 685.14 31.9062C685.34 31.3864 685.441 30.7812 685.441 30.0909C685.441 29.4091 685.343 28.8125 685.147 28.3011C684.951 27.7898 684.663 27.3913 684.284 27.1058C683.904 26.8203 683.436 26.6776 682.877 26.6776C682.302 26.6776 681.823 26.8267 681.439 27.125C681.056 27.4233 680.766 27.8303 680.57 28.3459C680.378 28.8615 680.282 29.4432 680.282 30.0909C680.282 30.7472 680.38 31.3374 680.576 31.8615C680.772 32.3857 681.062 32.8011 681.446 33.108C681.833 33.4105 682.311 33.5618 682.877 33.5618ZM697.967 25.1818L694.406 35H692.361L688.794 25.1818H690.846L693.333 32.7372H693.435L695.915 25.1818H697.967ZM699.283 35V25.1818H701.194V35H699.283ZM700.248 23.6669C699.916 23.6669 699.63 23.5561 699.392 23.3345C699.157 23.1087 699.04 22.8402 699.04 22.5291C699.04 22.2138 699.157 21.9453 699.392 21.7237C699.63 21.4979 699.916 21.3849 700.248 21.3849C700.581 21.3849 700.864 21.4979 701.098 21.7237C701.337 21.9453 701.456 22.2138 701.456 22.5291C701.456 22.8402 701.337 23.1087 701.098 23.3345C700.864 23.5561 700.581 23.6669 700.248 23.6669ZM710.643 27.5788L708.91 27.8857C708.838 27.6641 708.723 27.4531 708.565 27.2528C708.412 27.0526 708.203 26.8885 707.939 26.7607C707.675 26.6328 707.344 26.5689 706.948 26.5689C706.407 26.5689 705.955 26.6903 705.593 26.9332C705.231 27.1719 705.05 27.4808 705.05 27.8601C705.05 28.1882 705.171 28.4524 705.414 28.6527C705.657 28.853 706.049 29.017 706.59 29.1449L708.15 29.5028C709.053 29.7116 709.726 30.0334 710.17 30.468C710.613 30.9027 710.834 31.4673 710.834 32.1619C710.834 32.75 710.664 33.2741 710.323 33.7344C709.986 34.1903 709.516 34.5483 708.91 34.8082C708.31 35.0682 707.613 35.1982 706.82 35.1982C705.721 35.1982 704.824 34.9638 704.129 34.495C703.435 34.022 703.008 33.3509 702.851 32.4815L704.698 32.2003C704.813 32.6818 705.05 33.0462 705.408 33.2933C705.766 33.5362 706.232 33.6577 706.807 33.6577C707.434 33.6577 707.935 33.5277 708.31 33.2678C708.685 33.0036 708.872 32.6818 708.872 32.3026C708.872 31.9957 708.757 31.7379 708.527 31.5291C708.301 31.3203 707.954 31.1626 707.485 31.0561L705.823 30.6918C704.907 30.483 704.229 30.1506 703.79 29.6946C703.356 29.2386 703.138 28.6612 703.138 27.9624C703.138 27.3828 703.3 26.8757 703.624 26.4411C703.948 26.0064 704.396 25.6676 704.967 25.4247C705.538 25.1776 706.192 25.054 706.929 25.054C707.99 25.054 708.825 25.2841 709.435 25.7443C710.044 26.2003 710.447 26.8118 710.643 27.5788ZM716.591 35.1982C715.671 35.1982 714.868 34.9872 714.182 34.5653C713.496 34.1435 712.963 33.5533 712.584 32.7947C712.204 32.0362 712.015 31.1499 712.015 30.1357C712.015 29.1172 712.204 28.2266 712.584 27.4638C712.963 26.701 713.496 26.1087 714.182 25.6868C714.868 25.2649 715.671 25.054 716.591 25.054C717.512 25.054 718.315 25.2649 719.001 25.6868C719.687 26.1087 720.22 26.701 720.599 27.4638C720.979 28.2266 721.168 29.1172 721.168 30.1357C721.168 31.1499 720.979 32.0362 720.599 32.7947C720.22 33.5533 719.687 34.1435 719.001 34.5653C718.315 34.9872 717.512 35.1982 716.591 35.1982ZM716.598 33.5938C717.194 33.5938 717.689 33.4361 718.081 33.1207C718.473 32.8054 718.763 32.3857 718.95 31.8615C719.142 31.3374 719.238 30.7599 719.238 30.1293C719.238 29.5028 719.142 28.9276 718.95 28.4034C718.763 27.875 718.473 27.451 718.081 27.1314C717.689 26.8118 717.194 26.652 716.598 26.652C715.997 26.652 715.498 26.8118 715.102 27.1314C714.71 27.451 714.418 27.875 714.226 28.4034C714.039 28.9276 713.945 29.5028 713.945 30.1293C713.945 30.7599 714.039 31.3374 714.226 31.8615C714.418 32.3857 714.71 32.8054 715.102 33.1207C715.498 33.4361 715.997 33.5938 716.598 33.5938ZM722.822 35V25.1818H724.669V26.7415H724.771C724.95 26.2131 725.265 25.7976 725.717 25.495C726.173 25.1882 726.689 25.0348 727.264 25.0348C727.383 25.0348 727.524 25.0391 727.686 25.0476C727.852 25.0561 727.982 25.0668 728.076 25.0795V26.9077C727.999 26.8864 727.863 26.8629 727.667 26.8374C727.471 26.8075 727.275 26.7926 727.079 26.7926C726.627 26.7926 726.224 26.8885 725.871 27.0803C725.521 27.2678 725.244 27.5298 725.04 27.8665C724.835 28.1989 724.733 28.5781 724.733 29.0043V35H722.822ZM736.607 27.5788L734.875 27.8857C734.802 27.6641 734.687 27.4531 734.53 27.2528C734.376 27.0526 734.167 26.8885 733.903 26.7607C733.639 26.6328 733.309 26.5689 732.912 26.5689C732.371 26.5689 731.919 26.6903 731.557 26.9332C731.195 27.1719 731.014 27.4808 731.014 27.8601C731.014 28.1882 731.135 28.4524 731.378 28.6527C731.621 28.853 732.013 29.017 732.554 29.1449L734.114 29.5028C735.017 29.7116 735.691 30.0334 736.134 30.468C736.577 30.9027 736.799 31.4673 736.799 32.1619C736.799 32.75 736.628 33.2741 736.287 33.7344C735.951 34.1903 735.48 34.5483 734.875 34.8082C734.274 35.0682 733.577 35.1982 732.785 35.1982C731.685 35.1982 730.788 34.9638 730.093 34.495C729.399 34.022 728.973 33.3509 728.815 32.4815L730.662 32.2003C730.777 32.6818 731.014 33.0462 731.372 33.2933C731.73 33.5362 732.196 33.6577 732.772 33.6577C733.398 33.6577 733.899 33.5277 734.274 33.2678C734.649 33.0036 734.836 32.6818 734.836 32.3026C734.836 31.9957 734.721 31.7379 734.491 31.5291C734.265 31.3203 733.918 31.1626 733.449 31.0561L731.787 30.6918C730.871 30.483 730.194 30.1506 729.755 29.6946C729.32 29.2386 729.103 28.6612 729.103 27.9624C729.103 27.3828 729.265 26.8757 729.588 26.4411C729.912 26.0064 730.36 25.6676 730.931 25.4247C731.502 25.1776 732.156 25.054 732.893 25.054C733.954 25.054 734.789 25.2841 735.399 25.7443C736.008 26.2003 736.411 26.8118 736.607 27.5788Z" fill="white"/>
<rect x="1081.5" y="499.5" width="222" height="55" rx="13.5" fill="url(#paint2_linear_2073_169)"/>
<rect x="1081.5" y="499.5" width="222" height="55" rx="13.5" stroke="url(#paint3_linear_2073_169)"/>
<path d="M1116.83 534.179C1116.25 534.17 1115.67 534.064 1115.1 533.859C1114.54 533.655 1114.03 533.314 1113.57 532.837C1113.11 532.359 1112.74 531.718 1112.46 530.913C1112.19 530.107 1112.05 529.102 1112.05 527.896C1112.05 526.754 1112.17 525.739 1112.39 524.853C1112.62 523.967 1112.95 523.219 1113.38 522.609C1113.81 521.996 1114.33 521.529 1114.94 521.21C1115.55 520.89 1116.24 520.73 1117 520.73C1117.78 520.73 1118.47 520.884 1119.07 521.19C1119.68 521.497 1120.17 521.921 1120.54 522.462C1120.92 523.004 1121.16 523.619 1121.27 524.31H1119.32C1119.18 523.764 1118.92 523.319 1118.53 522.974C1118.14 522.629 1117.63 522.456 1117 522.456C1116.04 522.456 1115.29 522.874 1114.75 523.709C1114.22 524.544 1113.95 525.705 1113.95 527.192H1114.04C1114.27 526.822 1114.55 526.506 1114.87 526.246C1115.21 525.982 1115.58 525.78 1115.99 525.639C1116.4 525.494 1116.83 525.422 1117.29 525.422C1118.05 525.422 1118.73 525.607 1119.35 525.978C1119.97 526.344 1120.46 526.852 1120.82 527.499C1121.19 528.147 1121.37 528.888 1121.37 529.724C1121.37 530.559 1121.18 531.315 1120.81 531.993C1120.43 532.67 1119.9 533.207 1119.22 533.604C1118.54 533.996 1117.74 534.188 1116.83 534.179ZM1116.82 532.517C1117.33 532.517 1117.78 532.393 1118.17 532.146C1118.57 531.899 1118.88 531.567 1119.11 531.149C1119.34 530.732 1119.46 530.265 1119.46 529.749C1119.46 529.246 1119.34 528.788 1119.12 528.375C1118.9 527.962 1118.59 527.634 1118.2 527.391C1117.81 527.148 1117.37 527.026 1116.87 527.026C1116.49 527.026 1116.14 527.099 1115.81 527.244C1115.49 527.388 1115.21 527.589 1114.97 527.844C1114.73 528.1 1114.53 528.394 1114.39 528.727C1114.26 529.055 1114.19 529.402 1114.19 529.768C1114.19 530.259 1114.3 530.712 1114.53 531.13C1114.76 531.548 1115.07 531.884 1115.47 532.14C1115.87 532.391 1116.32 532.517 1116.82 532.517ZM1127.78 534.217C1126.77 534.213 1125.91 533.947 1125.19 533.418C1124.48 532.89 1123.93 532.121 1123.55 531.111C1123.17 530.101 1122.98 528.884 1122.98 527.461C1122.98 526.042 1123.17 524.83 1123.55 523.824C1123.93 522.818 1124.48 522.051 1125.2 521.523C1125.92 520.994 1126.78 520.73 1127.78 520.73C1128.78 520.73 1129.64 520.996 1130.36 521.529C1131.07 522.058 1131.62 522.825 1132 523.83C1132.38 524.832 1132.57 526.042 1132.57 527.461C1132.57 528.888 1132.38 530.107 1132.01 531.117C1131.63 532.123 1131.08 532.892 1130.36 533.425C1129.65 533.953 1128.79 534.217 1127.78 534.217ZM1127.78 532.511C1128.67 532.511 1129.36 532.078 1129.86 531.213C1130.36 530.348 1130.61 529.097 1130.61 527.461C1130.61 526.374 1130.5 525.456 1130.27 524.706C1130.04 523.952 1129.71 523.381 1129.29 522.993C1128.87 522.601 1128.36 522.405 1127.78 522.405C1126.9 522.405 1126.21 522.839 1125.7 523.709C1125.2 524.578 1124.95 525.829 1124.94 527.461C1124.94 528.552 1125.05 529.474 1125.28 530.229C1125.51 530.979 1125.84 531.548 1126.26 531.935C1126.68 532.319 1127.19 532.511 1127.78 532.511ZM1141.19 531.545V530.855C1141.19 530.361 1141.3 529.909 1141.5 529.5C1141.71 529.087 1142.01 528.756 1142.41 528.509C1142.81 528.258 1143.29 528.132 1143.86 528.132C1144.44 528.132 1144.93 528.256 1145.32 528.503C1145.71 528.75 1146.01 529.08 1146.21 529.494C1146.41 529.907 1146.51 530.361 1146.51 530.855V531.545C1146.51 532.04 1146.41 532.494 1146.21 532.907C1146 533.316 1145.7 533.646 1145.3 533.898C1144.91 534.145 1144.43 534.268 1143.86 534.268C1143.29 534.268 1142.8 534.145 1142.4 533.898C1142.01 533.646 1141.71 533.316 1141.5 532.907C1141.3 532.494 1141.19 532.04 1141.19 531.545ZM1142.68 530.855V531.545C1142.68 531.912 1142.77 532.244 1142.95 532.543C1143.12 532.841 1143.43 532.99 1143.86 532.99C1144.29 532.99 1144.59 532.841 1144.76 532.543C1144.93 532.244 1145.02 531.912 1145.02 531.545V530.855C1145.02 530.489 1144.93 530.156 1144.77 529.858C1144.61 529.56 1144.3 529.411 1143.86 529.411C1143.43 529.411 1143.13 529.56 1142.95 529.858C1142.77 530.156 1142.68 530.489 1142.68 530.855ZM1134.61 524.054V523.364C1134.61 522.869 1134.71 522.415 1134.92 522.002C1135.13 521.589 1135.43 521.259 1135.83 521.011C1136.23 520.764 1136.71 520.641 1137.28 520.641C1137.86 520.641 1138.34 520.764 1138.73 521.011C1139.13 521.259 1139.42 521.589 1139.62 522.002C1139.82 522.415 1139.92 522.869 1139.92 523.364V524.054C1139.92 524.548 1139.82 525.002 1139.62 525.415C1139.42 525.825 1139.12 526.155 1138.72 526.406C1138.33 526.653 1137.85 526.777 1137.28 526.777C1136.7 526.777 1136.21 526.653 1135.81 526.406C1135.42 526.155 1135.12 525.825 1134.92 525.415C1134.71 525.002 1134.61 524.548 1134.61 524.054ZM1136.11 523.364V524.054C1136.11 524.42 1136.19 524.753 1136.36 525.051C1136.54 525.349 1136.84 525.499 1137.28 525.499C1137.7 525.499 1138 525.349 1138.17 525.051C1138.35 524.753 1138.43 524.42 1138.43 524.054V523.364C1138.43 522.997 1138.35 522.665 1138.18 522.366C1138.02 522.068 1137.72 521.919 1137.28 521.919C1136.85 521.919 1136.55 522.068 1136.37 522.366C1136.19 522.665 1136.11 522.997 1136.11 523.364ZM1135.22 534L1144.22 520.909H1145.75L1136.75 534H1135.22ZM1158.88 526.624V528.286H1153.08V526.624H1158.88ZM1165.39 534V520.909H1167.36V532.3H1173.29V534H1165.39ZM1174.91 534V524.182H1176.82V534H1174.91ZM1175.88 522.667C1175.55 522.667 1175.26 522.556 1175.02 522.335C1174.79 522.109 1174.67 521.84 1174.67 521.529C1174.67 521.214 1174.79 520.945 1175.02 520.724C1175.26 520.498 1175.55 520.385 1175.88 520.385C1176.21 520.385 1176.49 520.498 1176.73 520.724C1176.97 520.945 1177.09 521.214 1177.09 521.529C1177.09 521.84 1176.97 522.109 1176.73 522.335C1176.49 522.556 1176.21 522.667 1175.88 522.667ZM1185.54 537.682V532.472H1185.43C1185.31 532.681 1185.15 532.92 1184.93 533.188C1184.72 533.457 1184.42 533.691 1184.05 533.891C1183.67 534.092 1183.19 534.192 1182.59 534.192C1181.8 534.192 1181.09 533.989 1180.47 533.585C1179.85 533.175 1179.37 532.594 1179.01 531.839C1178.66 531.081 1178.49 530.171 1178.49 529.11C1178.49 528.049 1178.66 527.141 1179.02 526.387C1179.38 525.633 1179.87 525.055 1180.49 524.655C1181.11 524.254 1181.82 524.054 1182.6 524.054C1183.21 524.054 1183.7 524.156 1184.07 524.361C1184.45 524.561 1184.74 524.795 1184.94 525.064C1185.15 525.332 1185.31 525.569 1185.43 525.773H1185.59V524.182H1187.46V537.682H1185.54ZM1183.01 532.562C1183.56 532.562 1184.03 532.417 1184.41 532.127C1184.79 531.833 1185.08 531.426 1185.28 530.906C1185.48 530.386 1185.58 529.781 1185.58 529.091C1185.58 528.409 1185.48 527.812 1185.28 527.301C1185.09 526.79 1184.8 526.391 1184.42 526.106C1184.04 525.82 1183.57 525.678 1183.01 525.678C1182.44 525.678 1181.96 525.827 1181.57 526.125C1181.19 526.423 1180.9 526.83 1180.71 527.346C1180.51 527.862 1180.42 528.443 1180.42 529.091C1180.42 529.747 1180.52 530.337 1180.71 530.862C1180.91 531.386 1181.2 531.801 1181.58 532.108C1181.97 532.411 1182.45 532.562 1183.01 532.562ZM1195.76 529.928V524.182H1197.68V534H1195.8V532.3H1195.7C1195.47 532.824 1195.11 533.261 1194.61 533.61C1194.12 533.955 1193.5 534.128 1192.77 534.128C1192.14 534.128 1191.58 533.989 1191.09 533.712C1190.61 533.431 1190.23 533.016 1189.95 532.466C1189.68 531.916 1189.54 531.237 1189.54 530.427V524.182H1191.46V530.197C1191.46 530.866 1191.64 531.398 1192.01 531.795C1192.38 532.191 1192.86 532.389 1193.46 532.389C1193.81 532.389 1194.17 532.3 1194.52 532.121C1194.88 531.942 1195.18 531.671 1195.41 531.309C1195.65 530.947 1195.77 530.487 1195.76 529.928ZM1199.77 534V524.182H1201.68V534H1199.77ZM1200.74 522.667C1200.4 522.667 1200.12 522.556 1199.88 522.335C1199.64 522.109 1199.53 521.84 1199.53 521.529C1199.53 521.214 1199.64 520.945 1199.88 520.724C1200.12 520.498 1200.4 520.385 1200.74 520.385C1201.07 520.385 1201.35 520.498 1201.59 520.724C1201.82 520.945 1201.94 521.214 1201.94 521.529C1201.94 521.84 1201.82 522.109 1201.59 522.335C1201.35 522.556 1201.07 522.667 1200.74 522.667ZM1207.45 534.192C1206.66 534.192 1205.95 533.989 1205.33 533.585C1204.71 533.175 1204.22 532.594 1203.87 531.839C1203.52 531.081 1203.34 530.171 1203.34 529.11C1203.34 528.049 1203.52 527.141 1203.87 526.387C1204.23 525.633 1204.72 525.055 1205.34 524.655C1205.97 524.254 1206.67 524.054 1207.46 524.054C1208.07 524.054 1208.56 524.156 1208.93 524.361C1209.31 524.561 1209.6 524.795 1209.8 525.064C1210.01 525.332 1210.17 525.569 1210.29 525.773H1210.4V520.909H1212.31V534H1210.45V532.472H1210.29C1210.17 532.681 1210 532.92 1209.79 533.188C1209.57 533.457 1209.28 533.691 1208.91 533.891C1208.53 534.092 1208.04 534.192 1207.45 534.192ZM1207.87 532.562C1208.42 532.562 1208.88 532.417 1209.26 532.127C1209.65 531.833 1209.94 531.426 1210.13 530.906C1210.33 530.386 1210.43 529.781 1210.43 529.091C1210.43 528.409 1210.33 527.812 1210.14 527.301C1209.94 526.79 1209.66 526.391 1209.28 526.106C1208.9 525.82 1208.43 525.678 1207.87 525.678C1207.29 525.678 1206.81 525.827 1206.43 526.125C1206.05 526.423 1205.76 526.83 1205.56 527.346C1205.37 527.862 1205.27 528.443 1205.27 529.091C1205.27 529.747 1205.37 530.337 1205.57 530.862C1205.76 531.386 1206.05 531.801 1206.44 532.108C1206.83 532.411 1207.3 532.562 1207.87 532.562ZM1214.56 534V524.182H1216.47V534H1214.56ZM1215.53 522.667C1215.19 522.667 1214.91 522.556 1214.67 522.335C1214.43 522.109 1214.32 521.84 1214.32 521.529C1214.32 521.214 1214.43 520.945 1214.67 520.724C1214.91 520.498 1215.19 520.385 1215.53 520.385C1215.86 520.385 1216.14 520.498 1216.38 520.724C1216.61 520.945 1216.73 521.214 1216.73 521.529C1216.73 521.84 1216.61 522.109 1216.38 522.335C1216.14 522.556 1215.86 522.667 1215.53 522.667ZM1223.15 524.182V525.716H1217.78V524.182H1223.15ZM1219.22 521.83H1221.13V531.117C1221.13 531.488 1221.19 531.767 1221.3 531.955C1221.41 532.138 1221.55 532.263 1221.73 532.332C1221.91 532.396 1222.1 532.428 1222.31 532.428C1222.46 532.428 1222.6 532.417 1222.71 532.396C1222.83 532.374 1222.92 532.357 1222.98 532.344L1223.32 533.923C1223.21 533.966 1223.06 534.009 1222.85 534.051C1222.65 534.098 1222.39 534.124 1222.08 534.128C1221.58 534.136 1221.11 534.047 1220.68 533.859C1220.24 533.672 1219.89 533.382 1219.62 532.99C1219.35 532.598 1219.22 532.106 1219.22 531.513V521.83ZM1225.99 537.682C1225.7 537.682 1225.44 537.658 1225.21 537.612C1224.97 537.569 1224.8 537.522 1224.68 537.471L1225.14 535.905C1225.49 535.999 1225.8 536.039 1226.08 536.026C1226.35 536.013 1226.59 535.911 1226.8 535.719C1227.01 535.528 1227.2 535.214 1227.36 534.78L1227.6 534.128L1224.01 524.182H1226.05L1228.54 531.801H1228.64L1231.13 524.182H1233.18L1229.13 535.31C1228.95 535.822 1228.71 536.254 1228.42 536.608C1228.13 536.966 1227.78 537.234 1227.38 537.413C1226.98 537.592 1226.52 537.682 1225.99 537.682ZM1238.93 534V520.909H1243.6C1244.62 520.909 1245.46 521.094 1246.13 521.465C1246.8 521.836 1247.3 522.343 1247.63 522.987C1247.96 523.626 1248.13 524.346 1248.13 525.147C1248.13 525.952 1247.96 526.677 1247.63 527.32C1247.29 527.96 1246.79 528.467 1246.12 528.842C1245.45 529.212 1244.61 529.398 1243.59 529.398H1240.38V527.723H1243.41C1244.06 527.723 1244.58 527.612 1244.98 527.391C1245.38 527.165 1245.67 526.858 1245.86 526.47C1246.05 526.082 1246.14 525.641 1246.14 525.147C1246.14 524.653 1246.05 524.214 1245.86 523.83C1245.67 523.447 1245.38 523.146 1244.97 522.929C1244.57 522.712 1244.04 522.603 1243.39 522.603H1240.91V534H1238.93ZM1253.82 534.198C1252.9 534.198 1252.1 533.987 1251.42 533.565C1250.73 533.143 1250.2 532.553 1249.82 531.795C1249.44 531.036 1249.25 530.15 1249.25 529.136C1249.25 528.117 1249.44 527.227 1249.82 526.464C1250.2 525.701 1250.73 525.109 1251.42 524.687C1252.1 524.265 1252.9 524.054 1253.82 524.054C1254.75 524.054 1255.55 524.265 1256.23 524.687C1256.92 525.109 1257.45 525.701 1257.83 526.464C1258.21 527.227 1258.4 528.117 1258.4 529.136C1258.4 530.15 1258.21 531.036 1257.83 531.795C1257.45 532.553 1256.92 533.143 1256.23 533.565C1255.55 533.987 1254.75 534.198 1253.82 534.198ZM1253.83 532.594C1254.43 532.594 1254.92 532.436 1255.31 532.121C1255.71 531.805 1256 531.386 1256.18 530.862C1256.38 530.337 1256.47 529.76 1256.47 529.129C1256.47 528.503 1256.38 527.928 1256.18 527.403C1256 526.875 1255.71 526.451 1255.31 526.131C1254.92 525.812 1254.43 525.652 1253.83 525.652C1253.23 525.652 1252.73 525.812 1252.34 526.131C1251.94 526.451 1251.65 526.875 1251.46 527.403C1251.27 527.928 1251.18 528.503 1251.18 529.129C1251.18 529.76 1251.27 530.337 1251.46 530.862C1251.65 531.386 1251.94 531.805 1252.34 532.121C1252.73 532.436 1253.23 532.594 1253.83 532.594ZM1264.19 534.198C1263.27 534.198 1262.47 533.987 1261.78 533.565C1261.09 533.143 1260.56 532.553 1260.18 531.795C1259.8 531.036 1259.61 530.15 1259.61 529.136C1259.61 528.117 1259.8 527.227 1260.18 526.464C1260.56 525.701 1261.09 525.109 1261.78 524.687C1262.47 524.265 1263.27 524.054 1264.19 524.054C1265.11 524.054 1265.91 524.265 1266.6 524.687C1267.29 525.109 1267.82 525.701 1268.2 526.464C1268.58 527.227 1268.77 528.117 1268.77 529.136C1268.77 530.15 1268.58 531.036 1268.2 531.795C1267.82 532.553 1267.29 533.143 1266.6 533.565C1265.91 533.987 1265.11 534.198 1264.19 534.198ZM1264.2 532.594C1264.79 532.594 1265.29 532.436 1265.68 532.121C1266.07 531.805 1266.36 531.386 1266.55 530.862C1266.74 530.337 1266.84 529.76 1266.84 529.129C1266.84 528.503 1266.74 527.928 1266.55 527.403C1266.36 526.875 1266.07 526.451 1265.68 526.131C1265.29 525.812 1264.79 525.652 1264.2 525.652C1263.6 525.652 1263.1 525.812 1262.7 526.131C1262.31 526.451 1262.02 526.875 1261.83 527.403C1261.64 527.928 1261.54 528.503 1261.54 529.129C1261.54 529.76 1261.64 530.337 1261.83 530.862C1262.02 531.386 1262.31 531.805 1262.7 532.121C1263.1 532.436 1263.6 532.594 1264.2 532.594ZM1272.33 520.909V534H1270.42V520.909H1272.33Z" fill="white"/>
<rect x="0.5" y="251.5" width="236" height="55" rx="13.5" fill="url(#paint4_linear_2073_169)"/>
<rect x="0.5" y="251.5" width="236" height="55" rx="13.5" stroke="url(#paint5_linear_2073_169)"/>
<path d="M36.2259 272.909V286H34.2443V274.891H34.1676L31.0355 276.936V275.044L34.3018 272.909H36.2259ZM43.8446 286.217C42.8346 286.213 41.9717 285.947 41.2558 285.418C40.5399 284.89 39.9923 284.121 39.613 283.111C39.2338 282.101 39.0441 280.884 39.0441 279.461C39.0441 278.042 39.2338 276.83 39.613 275.824C39.9966 274.818 40.5463 274.051 41.2622 273.523C41.9824 272.994 42.8432 272.73 43.8446 272.73C44.846 272.73 45.7047 272.996 46.4206 273.529C47.1365 274.058 47.6841 274.825 48.0633 275.83C48.4468 276.832 48.6386 278.042 48.6386 279.461C48.6386 280.888 48.449 282.107 48.0697 283.117C47.6905 284.123 47.1429 284.892 46.427 285.425C45.7111 285.953 44.8503 286.217 43.8446 286.217ZM43.8446 284.511C44.7309 284.511 45.4234 284.078 45.922 283.213C46.4248 282.348 46.6763 281.097 46.6763 279.461C46.6763 278.374 46.5612 277.456 46.3311 276.706C46.1052 275.952 45.7792 275.381 45.3531 274.993C44.9312 274.601 44.4284 274.405 43.8446 274.405C42.9625 274.405 42.27 274.839 41.7672 275.709C41.2643 276.578 41.0108 277.829 41.0065 279.461C41.0065 280.552 41.1194 281.474 41.3453 282.229C41.5754 282.979 41.9014 283.548 42.3233 283.935C42.7451 284.319 43.2522 284.511 43.8446 284.511ZM57.2593 283.545V282.855C57.2593 282.361 57.3616 281.909 57.5661 281.5C57.7749 281.087 58.0775 280.756 58.4738 280.509C58.8743 280.258 59.358 280.132 59.9248 280.132C60.5043 280.132 60.9901 280.256 61.3822 280.503C61.7742 280.75 62.0704 281.08 62.2706 281.494C62.4752 281.907 62.5775 282.361 62.5775 282.855V283.545C62.5775 284.04 62.4752 284.494 62.2706 284.907C62.0661 285.316 61.7657 285.646 61.3694 285.898C60.9773 286.145 60.4958 286.268 59.9248 286.268C59.3495 286.268 58.8637 286.145 58.4674 285.898C58.0711 285.646 57.7706 285.316 57.5661 284.907C57.3616 284.494 57.2593 284.04 57.2593 283.545ZM58.7486 282.855V283.545C58.7486 283.912 58.836 284.244 59.0107 284.543C59.1854 284.841 59.4901 284.99 59.9248 284.99C60.3552 284.99 60.6556 284.841 60.826 284.543C60.9965 284.244 61.0817 283.912 61.0817 283.545V282.855C61.0817 282.489 60.9986 282.156 60.8324 281.858C60.6705 281.56 60.3679 281.411 59.9248 281.411C59.4986 281.411 59.1961 281.56 59.0171 281.858C58.8381 282.156 58.7486 282.489 58.7486 282.855ZM50.6755 276.054V275.364C50.6755 274.869 50.7777 274.415 50.9823 274.002C51.1911 273.589 51.4937 273.259 51.89 273.011C52.2905 272.764 52.7742 272.641 53.341 272.641C53.9205 272.641 54.4063 272.764 54.7983 273.011C55.1904 273.259 55.4866 273.589 55.6868 274.002C55.8871 274.415 55.9873 274.869 55.9873 275.364V276.054C55.9873 276.548 55.885 277.002 55.6804 277.415C55.4802 277.825 55.1819 278.155 54.7856 278.406C54.3935 278.653 53.912 278.777 53.341 278.777C52.7614 278.777 52.2735 278.653 51.8772 278.406C51.4851 278.155 51.1868 277.825 50.9823 277.415C50.7777 277.002 50.6755 276.548 50.6755 276.054ZM52.1712 275.364V276.054C52.1712 276.42 52.2564 276.753 52.4269 277.051C52.6016 277.349 52.9063 277.499 53.341 277.499C53.7671 277.499 54.0654 277.349 54.2358 277.051C54.4106 276.753 54.4979 276.42 54.4979 276.054V275.364C54.4979 274.997 54.4148 274.665 54.2486 274.366C54.0824 274.068 53.7799 273.919 53.341 273.919C52.9148 273.919 52.6123 274.068 52.4333 274.366C52.2586 274.665 52.1712 274.997 52.1712 275.364ZM51.2827 286L60.2827 272.909H61.8104L52.8104 286H51.2827ZM74.9465 278.624V280.286H69.1425V278.624H74.9465ZM89.8691 272.909H91.8506V281.519C91.8506 282.435 91.6354 283.247 91.205 283.955C90.7747 284.658 90.1695 285.212 89.3897 285.616C88.6099 286.017 87.6958 286.217 86.6475 286.217C85.6035 286.217 84.6916 286.017 83.9117 285.616C83.1319 285.212 82.5268 284.658 82.0964 283.955C81.666 283.247 81.4508 282.435 81.4508 281.519V272.909H83.4259V281.359C83.4259 281.952 83.5559 282.478 83.8158 282.938C84.08 283.398 84.4529 283.761 84.9345 284.025C85.416 284.285 85.987 284.415 86.6475 284.415C87.3123 284.415 87.8854 284.285 88.367 284.025C88.8528 283.761 89.2235 283.398 89.4792 282.938C89.7391 282.478 89.8691 281.952 89.8691 281.359V272.909ZM101.446 278.579L99.7139 278.886C99.6414 278.664 99.5264 278.453 99.3687 278.253C99.2153 278.053 99.0065 277.888 98.7423 277.761C98.4781 277.633 98.1478 277.569 97.7515 277.569C97.2103 277.569 96.7586 277.69 96.3964 277.933C96.0342 278.172 95.8531 278.481 95.8531 278.86C95.8531 279.188 95.9745 279.452 96.2174 279.653C96.4603 279.853 96.8524 280.017 97.3936 280.145L98.9532 280.503C99.8566 280.712 100.53 281.033 100.973 281.468C101.416 281.903 101.638 282.467 101.638 283.162C101.638 283.75 101.467 284.274 101.127 284.734C100.79 285.19 100.319 285.548 99.7139 285.808C99.113 286.068 98.4163 286.198 97.6237 286.198C96.5242 286.198 95.6272 285.964 94.9326 285.495C94.238 285.022 93.8119 284.351 93.6542 283.482L95.5015 283.2C95.6166 283.682 95.8531 284.046 96.211 284.293C96.569 284.536 97.0356 284.658 97.6109 284.658C98.2373 284.658 98.738 284.528 99.113 284.268C99.488 284.004 99.6755 283.682 99.6755 283.303C99.6755 282.996 99.5605 282.738 99.3303 282.529C99.1045 282.32 98.7572 282.163 98.2884 282.056L96.6265 281.692C95.7103 281.483 95.0328 281.151 94.5938 280.695C94.1592 280.239 93.9418 279.661 93.9418 278.962C93.9418 278.383 94.1038 277.876 94.4276 277.441C94.7515 277.006 95.1989 276.668 95.77 276.425C96.341 276.178 96.9951 276.054 97.7323 276.054C98.7934 276.054 99.6286 276.284 100.238 276.744C100.847 277.2 101.25 277.812 101.446 278.579ZM107.491 286.198C106.523 286.198 105.69 285.991 104.992 285.578C104.297 285.161 103.76 284.575 103.381 283.82C103.006 283.062 102.818 282.173 102.818 281.155C102.818 280.149 103.006 279.263 103.381 278.496C103.76 277.729 104.288 277.13 104.966 276.7C105.648 276.269 106.445 276.054 107.357 276.054C107.911 276.054 108.447 276.146 108.967 276.329C109.487 276.512 109.954 276.8 110.367 277.192C110.781 277.584 111.107 278.093 111.345 278.719C111.584 279.342 111.703 280.098 111.703 280.989V281.666H103.898V280.234H109.83C109.83 279.732 109.728 279.286 109.523 278.898C109.319 278.506 109.031 278.197 108.661 277.972C108.294 277.746 107.864 277.633 107.369 277.633C106.832 277.633 106.364 277.765 105.963 278.029C105.567 278.289 105.26 278.63 105.043 279.052C104.83 279.469 104.723 279.923 104.723 280.413V281.532C104.723 282.188 104.838 282.746 105.068 283.207C105.303 283.667 105.629 284.018 106.046 284.261C106.464 284.5 106.952 284.619 107.51 284.619C107.872 284.619 108.202 284.568 108.501 284.466C108.799 284.359 109.057 284.202 109.274 283.993C109.492 283.784 109.658 283.526 109.773 283.219L111.582 283.545C111.437 284.078 111.177 284.545 110.802 284.945C110.431 285.342 109.965 285.651 109.402 285.872C108.844 286.089 108.207 286.198 107.491 286.198ZM113.344 286V276.182H115.191V277.741H115.293C115.472 277.213 115.788 276.798 116.239 276.495C116.695 276.188 117.211 276.035 117.786 276.035C117.905 276.035 118.046 276.039 118.208 276.048C118.374 276.056 118.504 276.067 118.598 276.08V277.908C118.521 277.886 118.385 277.863 118.189 277.837C117.993 277.808 117.797 277.793 117.601 277.793C117.149 277.793 116.746 277.888 116.393 278.08C116.043 278.268 115.766 278.53 115.562 278.866C115.357 279.199 115.255 279.578 115.255 280.004V286H113.344ZM126.184 272.909V286H124.209V272.909H126.184ZM130.338 280.17V286H128.427V276.182H130.262V277.78H130.383C130.609 277.26 130.963 276.842 131.444 276.527C131.93 276.212 132.541 276.054 133.279 276.054C133.948 276.054 134.534 276.195 135.037 276.476C135.539 276.753 135.929 277.166 136.206 277.716C136.483 278.266 136.622 278.945 136.622 279.755V286H134.711V279.985C134.711 279.273 134.525 278.717 134.154 278.317C133.784 277.912 133.274 277.71 132.627 277.71C132.184 277.71 131.789 277.805 131.444 277.997C131.103 278.189 130.833 278.47 130.632 278.841C130.436 279.207 130.338 279.651 130.338 280.17ZM142.841 286.198C141.89 286.198 141.072 285.983 140.386 285.553C139.704 285.118 139.18 284.519 138.814 283.756C138.447 282.994 138.264 282.12 138.264 281.136C138.264 280.138 138.451 279.259 138.826 278.496C139.201 277.729 139.73 277.13 140.412 276.7C141.093 276.269 141.897 276.054 142.821 276.054C143.567 276.054 144.232 276.192 144.816 276.469C145.4 276.742 145.87 277.126 146.228 277.62C146.591 278.114 146.806 278.692 146.874 279.352H145.014C144.912 278.892 144.677 278.496 144.311 278.163C143.949 277.831 143.463 277.665 142.853 277.665C142.321 277.665 141.854 277.805 141.454 278.087C141.057 278.364 140.748 278.76 140.527 279.276C140.305 279.787 140.194 280.392 140.194 281.091C140.194 281.807 140.303 282.425 140.52 282.945C140.738 283.464 141.044 283.867 141.441 284.153C141.841 284.438 142.312 284.581 142.853 284.581C143.216 284.581 143.544 284.515 143.838 284.383C144.136 284.246 144.385 284.053 144.586 283.801C144.79 283.55 144.933 283.247 145.014 282.893H146.874C146.806 283.528 146.599 284.095 146.254 284.594C145.909 285.092 145.446 285.484 144.867 285.77C144.292 286.055 143.616 286.198 142.841 286.198ZM152.669 286.198C151.702 286.198 150.869 285.991 150.17 285.578C149.475 285.161 148.939 284.575 148.559 283.82C148.184 283.062 147.997 282.173 147.997 281.155C147.997 280.149 148.184 279.263 148.559 278.496C148.939 277.729 149.467 277.13 150.145 276.7C150.826 276.269 151.623 276.054 152.535 276.054C153.089 276.054 153.626 276.146 154.146 276.329C154.666 276.512 155.132 276.8 155.546 277.192C155.959 277.584 156.285 278.093 156.524 278.719C156.762 279.342 156.882 280.098 156.882 280.989V281.666H149.077V280.234H155.009C155.009 279.732 154.907 279.286 154.702 278.898C154.498 278.506 154.21 278.197 153.839 277.972C153.473 277.746 153.042 277.633 152.548 277.633C152.011 277.633 151.542 277.765 151.142 278.029C150.745 278.289 150.439 278.63 150.221 279.052C150.008 279.469 149.902 279.923 149.902 280.413V281.532C149.902 282.188 150.017 282.746 150.247 283.207C150.481 283.667 150.807 284.018 151.225 284.261C151.642 284.5 152.13 284.619 152.689 284.619C153.051 284.619 153.381 284.568 153.679 284.466C153.978 284.359 154.235 284.202 154.453 283.993C154.67 283.784 154.836 283.526 154.951 283.219L156.76 283.545C156.615 284.078 156.355 284.545 155.98 284.945C155.61 285.342 155.143 285.651 154.581 285.872C154.022 286.089 153.385 286.198 152.669 286.198ZM160.434 280.17V286H158.522V276.182H160.357V277.78H160.478C160.704 277.26 161.058 276.842 161.539 276.527C162.025 276.212 162.637 276.054 163.374 276.054C164.043 276.054 164.629 276.195 165.132 276.476C165.635 276.753 166.024 277.166 166.301 277.716C166.578 278.266 166.717 278.945 166.717 279.755V286H164.806V279.985C164.806 279.273 164.62 278.717 164.25 278.317C163.879 277.912 163.37 277.71 162.722 277.71C162.279 277.71 161.885 277.805 161.539 277.997C161.198 278.189 160.928 278.47 160.728 278.841C160.532 279.207 160.434 279.651 160.434 280.17ZM173.383 276.182V277.716H168.02V276.182H173.383ZM169.459 273.83H171.37V283.117C171.37 283.488 171.425 283.767 171.536 283.955C171.647 284.138 171.789 284.263 171.964 284.332C172.143 284.396 172.337 284.428 172.546 284.428C172.699 284.428 172.834 284.417 172.949 284.396C173.064 284.374 173.153 284.357 173.217 284.344L173.562 285.923C173.451 285.966 173.294 286.009 173.089 286.051C172.885 286.098 172.629 286.124 172.322 286.128C171.819 286.136 171.351 286.047 170.916 285.859C170.481 285.672 170.13 285.382 169.861 284.99C169.593 284.598 169.459 284.106 169.459 283.513V273.83ZM175.017 286V276.182H176.929V286H175.017ZM175.983 274.667C175.65 274.667 175.365 274.556 175.126 274.335C174.892 274.109 174.774 273.84 174.774 273.529C174.774 273.214 174.892 272.945 175.126 272.724C175.365 272.498 175.65 272.385 175.983 272.385C176.315 272.385 176.598 272.498 176.833 272.724C177.071 272.945 177.191 273.214 177.191 273.529C177.191 273.84 177.071 274.109 176.833 274.335C176.598 274.556 176.315 274.667 175.983 274.667ZM187.419 276.182L183.859 286H181.813L178.246 276.182H180.298L182.785 283.737H182.887L185.367 276.182H187.419ZM192.633 286.198C191.665 286.198 190.832 285.991 190.133 285.578C189.439 285.161 188.902 284.575 188.523 283.82C188.148 283.062 187.96 282.173 187.96 281.155C187.96 280.149 188.148 279.263 188.523 278.496C188.902 277.729 189.43 277.13 190.108 276.7C190.79 276.269 191.587 276.054 192.498 276.054C193.052 276.054 193.589 276.146 194.109 276.329C194.629 276.512 195.096 276.8 195.509 277.192C195.922 277.584 196.248 278.093 196.487 278.719C196.726 279.342 196.845 280.098 196.845 280.989V281.666H189.04V280.234H194.972C194.972 279.732 194.87 279.286 194.665 278.898C194.461 278.506 194.173 278.197 193.802 277.972C193.436 277.746 193.006 277.633 192.511 277.633C191.974 277.633 191.506 277.765 191.105 278.029C190.709 278.289 190.402 278.63 190.185 279.052C189.971 279.469 189.865 279.923 189.865 280.413V281.532C189.865 282.188 189.98 282.746 190.21 283.207C190.444 283.667 190.77 284.018 191.188 284.261C191.606 284.5 192.094 284.619 192.652 284.619C193.014 284.619 193.344 284.568 193.643 284.466C193.941 284.359 194.199 284.202 194.416 283.993C194.633 283.784 194.8 283.526 194.915 283.219L196.724 283.545C196.579 284.078 196.319 284.545 195.944 284.945C195.573 285.342 195.106 285.651 194.544 285.872C193.986 286.089 193.349 286.198 192.633 286.198ZM205.843 278.579L204.111 278.886C204.038 278.664 203.923 278.453 203.765 278.253C203.612 278.053 203.403 277.888 203.139 277.761C202.875 277.633 202.545 277.569 202.148 277.569C201.607 277.569 201.155 277.69 200.793 277.933C200.431 278.172 200.25 278.481 200.25 278.86C200.25 279.188 200.371 279.452 200.614 279.653C200.857 279.853 201.249 280.017 201.79 280.145L203.35 280.503C204.253 280.712 204.927 281.033 205.37 281.468C205.813 281.903 206.035 282.467 206.035 283.162C206.035 283.75 205.864 284.274 205.523 284.734C205.187 285.19 204.716 285.548 204.111 285.808C203.51 286.068 202.813 286.198 202.02 286.198C200.921 286.198 200.024 285.964 199.329 285.495C198.635 285.022 198.209 284.351 198.051 283.482L199.898 283.2C200.013 283.682 200.25 284.046 200.608 284.293C200.966 284.536 201.432 284.658 202.008 284.658C202.634 284.658 203.135 284.528 203.51 284.268C203.885 284.004 204.072 283.682 204.072 283.303C204.072 282.996 203.957 282.738 203.727 282.529C203.501 282.32 203.154 282.163 202.685 282.056L201.023 281.692C200.107 281.483 199.429 281.151 198.991 280.695C198.556 280.239 198.339 279.661 198.339 278.962C198.339 278.383 198.5 277.876 198.824 277.441C199.148 277.006 199.596 276.668 200.167 276.425C200.738 276.178 201.392 276.054 202.129 276.054C203.19 276.054 204.025 276.284 204.635 276.744C205.244 277.2 205.647 277.812 205.843 278.579Z" fill="white"/>
<rect x="0.5" y="500.5" width="192" height="55" rx="13.5" fill="url(#paint6_linear_2073_169)"/>
<rect x="0.5" y="500.5" width="192" height="55" rx="13.5" stroke="url(#paint7_linear_2073_169)"/>
<path d="M36.2259 521.909V535H34.2443V523.891H34.1676L31.0355 525.936V524.044L34.3018 521.909H36.2259ZM43.8446 535.217C42.8346 535.213 41.9717 534.947 41.2558 534.418C40.5399 533.89 39.9923 533.121 39.613 532.111C39.2338 531.101 39.0441 529.884 39.0441 528.461C39.0441 527.042 39.2338 525.83 39.613 524.824C39.9966 523.818 40.5463 523.051 41.2622 522.523C41.9824 521.994 42.8432 521.73 43.8446 521.73C44.846 521.73 45.7047 521.996 46.4206 522.529C47.1365 523.058 47.6841 523.825 48.0633 524.83C48.4468 525.832 48.6386 527.042 48.6386 528.461C48.6386 529.888 48.449 531.107 48.0697 532.117C47.6905 533.123 47.1429 533.892 46.427 534.425C45.7111 534.953 44.8503 535.217 43.8446 535.217ZM43.8446 533.511C44.7309 533.511 45.4234 533.078 45.922 532.213C46.4248 531.348 46.6763 530.097 46.6763 528.461C46.6763 527.374 46.5612 526.456 46.3311 525.706C46.1052 524.952 45.7792 524.381 45.3531 523.993C44.9312 523.601 44.4284 523.405 43.8446 523.405C42.9625 523.405 42.27 523.839 41.7672 524.709C41.2643 525.578 41.0108 526.829 41.0065 528.461C41.0065 529.552 41.1194 530.474 41.3453 531.229C41.5754 531.979 41.9014 532.548 42.3233 532.935C42.7451 533.319 43.2522 533.511 43.8446 533.511ZM57.2593 532.545V531.855C57.2593 531.361 57.3616 530.909 57.5661 530.5C57.7749 530.087 58.0775 529.756 58.4738 529.509C58.8743 529.258 59.358 529.132 59.9248 529.132C60.5043 529.132 60.9901 529.256 61.3822 529.503C61.7742 529.75 62.0704 530.08 62.2706 530.494C62.4752 530.907 62.5775 531.361 62.5775 531.855V532.545C62.5775 533.04 62.4752 533.494 62.2706 533.907C62.0661 534.316 61.7657 534.646 61.3694 534.898C60.9773 535.145 60.4958 535.268 59.9248 535.268C59.3495 535.268 58.8637 535.145 58.4674 534.898C58.0711 534.646 57.7706 534.316 57.5661 533.907C57.3616 533.494 57.2593 533.04 57.2593 532.545ZM58.7486 531.855V532.545C58.7486 532.912 58.836 533.244 59.0107 533.543C59.1854 533.841 59.4901 533.99 59.9248 533.99C60.3552 533.99 60.6556 533.841 60.826 533.543C60.9965 533.244 61.0817 532.912 61.0817 532.545V531.855C61.0817 531.489 60.9986 531.156 60.8324 530.858C60.6705 530.56 60.3679 530.411 59.9248 530.411C59.4986 530.411 59.1961 530.56 59.0171 530.858C58.8381 531.156 58.7486 531.489 58.7486 531.855ZM50.6755 525.054V524.364C50.6755 523.869 50.7777 523.415 50.9823 523.002C51.1911 522.589 51.4937 522.259 51.89 522.011C52.2905 521.764 52.7742 521.641 53.341 521.641C53.9205 521.641 54.4063 521.764 54.7983 522.011C55.1904 522.259 55.4866 522.589 55.6868 523.002C55.8871 523.415 55.9873 523.869 55.9873 524.364V525.054C55.9873 525.548 55.885 526.002 55.6804 526.415C55.4802 526.825 55.1819 527.155 54.7856 527.406C54.3935 527.653 53.912 527.777 53.341 527.777C52.7614 527.777 52.2735 527.653 51.8772 527.406C51.4851 527.155 51.1868 526.825 50.9823 526.415C50.7777 526.002 50.6755 525.548 50.6755 525.054ZM52.1712 524.364V525.054C52.1712 525.42 52.2564 525.753 52.4269 526.051C52.6016 526.349 52.9063 526.499 53.341 526.499C53.7671 526.499 54.0654 526.349 54.2358 526.051C54.4106 525.753 54.4979 525.42 54.4979 525.054V524.364C54.4979 523.997 54.4148 523.665 54.2486 523.366C54.0824 523.068 53.7799 522.919 53.341 522.919C52.9148 522.919 52.6123 523.068 52.4333 523.366C52.2586 523.665 52.1712 523.997 52.1712 524.364ZM51.2827 535L60.2827 521.909H61.8104L52.8104 535H51.2827ZM74.9465 527.624V529.286H69.1425V527.624H74.9465ZM81.4508 521.909H83.8478L88.0154 532.085H88.1688L92.3364 521.909H94.7335V535H92.8542V525.527H92.7327L88.872 534.981H87.3123L83.4515 525.521H83.33V535H81.4508V521.909ZM99.8289 535.217C99.2068 535.217 98.6443 535.102 98.1414 534.872C97.6386 534.638 97.2401 534.299 96.9461 533.856C96.6563 533.413 96.5114 532.869 96.5114 532.226C96.5114 531.672 96.618 531.216 96.8311 530.858C97.0441 530.5 97.3318 530.217 97.694 530.008C98.0562 529.799 98.461 529.641 98.9085 529.535C99.3559 529.428 99.8119 529.347 100.276 529.292C100.864 529.224 101.342 529.168 101.708 529.126C102.075 529.079 102.341 529.004 102.507 528.902C102.673 528.8 102.756 528.634 102.756 528.403V528.359C102.756 527.8 102.599 527.368 102.283 527.061C101.972 526.754 101.508 526.601 100.89 526.601C100.247 526.601 99.7394 526.744 99.3687 527.029C99.0022 527.31 98.7487 527.624 98.608 527.969L96.8119 527.56C97.0249 526.963 97.336 526.482 97.7451 526.115C98.1585 525.744 98.6336 525.476 99.1705 525.31C99.7075 525.139 100.272 525.054 100.864 525.054C101.256 525.054 101.672 525.101 102.111 525.195C102.554 525.284 102.967 525.45 103.351 525.693C103.739 525.936 104.056 526.283 104.303 526.735C104.551 527.183 104.674 527.764 104.674 528.48V535H102.808V533.658H102.731C102.607 533.905 102.422 534.148 102.175 534.386C101.928 534.625 101.61 534.823 101.222 534.981C100.835 535.138 100.37 535.217 99.8289 535.217ZM100.244 533.683C100.773 533.683 101.225 533.579 101.6 533.37C101.979 533.161 102.266 532.888 102.462 532.552C102.663 532.211 102.763 531.847 102.763 531.459V530.193C102.695 530.261 102.563 530.325 102.367 530.385C102.175 530.44 101.955 530.489 101.708 530.532C101.461 530.57 101.22 530.607 100.986 530.641C100.752 530.67 100.555 530.696 100.398 530.717C100.027 530.764 99.6883 530.843 99.3815 530.954C99.0789 531.065 98.836 531.224 98.6528 531.433C98.4738 531.638 98.3843 531.911 98.3843 532.251C98.3843 532.724 98.559 533.082 98.9085 533.325C99.2579 533.564 99.7032 533.683 100.244 533.683ZM106.74 535V525.182H108.587V526.741H108.689C108.868 526.213 109.184 525.798 109.635 525.495C110.091 525.188 110.607 525.035 111.182 525.035C111.302 525.035 111.442 525.039 111.604 525.048C111.77 525.056 111.9 525.067 111.994 525.08V526.908C111.917 526.886 111.781 526.863 111.585 526.837C111.389 526.808 111.193 526.793 110.997 526.793C110.545 526.793 110.142 526.888 109.789 527.08C109.439 527.268 109.162 527.53 108.958 527.866C108.753 528.199 108.651 528.578 108.651 529.004V535H106.74ZM114.926 531.67L114.913 529.337H115.245L119.157 525.182H121.446L116.984 529.912H116.684L114.926 531.67ZM113.168 535V521.909H115.079V535H113.168ZM119.368 535L115.853 530.334L117.169 528.998L121.714 535H119.368ZM126.535 535.198C125.567 535.198 124.734 534.991 124.035 534.578C123.341 534.161 122.804 533.575 122.425 532.82C122.05 532.062 121.862 531.173 121.862 530.155C121.862 529.149 122.05 528.263 122.425 527.496C122.804 526.729 123.332 526.13 124.01 525.7C124.692 525.269 125.489 525.054 126.4 525.054C126.954 525.054 127.491 525.146 128.011 525.329C128.531 525.512 128.998 525.8 129.411 526.192C129.824 526.584 130.15 527.093 130.389 527.719C130.628 528.342 130.747 529.098 130.747 529.989V530.666H122.942V529.234H128.874C128.874 528.732 128.772 528.286 128.567 527.898C128.363 527.506 128.075 527.197 127.704 526.972C127.338 526.746 126.908 526.633 126.413 526.633C125.876 526.633 125.408 526.765 125.007 527.029C124.611 527.289 124.304 527.63 124.087 528.052C123.873 528.469 123.767 528.923 123.767 529.413V530.532C123.767 531.188 123.882 531.746 124.112 532.207C124.346 532.667 124.672 533.018 125.09 533.261C125.508 533.5 125.996 533.619 126.554 533.619C126.916 533.619 127.246 533.568 127.545 533.466C127.843 533.359 128.101 533.202 128.318 532.993C128.535 532.784 128.702 532.526 128.817 532.219L130.626 532.545C130.481 533.078 130.221 533.545 129.846 533.945C129.475 534.342 129.008 534.651 128.446 534.872C127.888 535.089 127.251 535.198 126.535 535.198ZM136.971 525.182V526.716H131.608V525.182H136.971ZM133.046 522.83H134.957V532.117C134.957 532.488 135.013 532.767 135.123 532.955C135.234 533.138 135.377 533.263 135.552 533.332C135.731 533.396 135.925 533.428 136.133 533.428C136.287 533.428 136.421 533.417 136.536 533.396C136.651 533.374 136.741 533.357 136.805 533.344L137.15 534.923C137.039 534.966 136.881 535.009 136.677 535.051C136.472 535.098 136.216 535.124 135.91 535.128C135.407 535.136 134.938 535.047 134.503 534.859C134.069 534.672 133.717 534.382 133.449 533.99C133.18 533.598 133.046 533.106 133.046 532.513V522.83ZM138.605 535V525.182H140.516V535H138.605ZM139.57 523.667C139.238 523.667 138.952 523.556 138.714 523.335C138.479 523.109 138.362 522.84 138.362 522.529C138.362 522.214 138.479 521.945 138.714 521.724C138.952 521.498 139.238 521.385 139.57 521.385C139.902 521.385 140.186 521.498 140.42 521.724C140.659 521.945 140.778 522.214 140.778 522.529C140.778 522.84 140.659 523.109 140.42 523.335C140.186 523.556 139.902 523.667 139.57 523.667ZM144.519 529.17V535H142.607V525.182H144.442V526.78H144.563C144.789 526.26 145.143 525.842 145.624 525.527C146.11 525.212 146.722 525.054 147.459 525.054C148.128 525.054 148.714 525.195 149.217 525.476C149.72 525.753 150.109 526.166 150.386 526.716C150.663 527.266 150.802 527.945 150.802 528.755V535H148.891V528.985C148.891 528.273 148.705 527.717 148.335 527.317C147.964 526.912 147.455 526.71 146.807 526.71C146.364 526.71 145.97 526.805 145.624 526.997C145.283 527.189 145.013 527.47 144.813 527.841C144.617 528.207 144.519 528.651 144.519 529.17ZM157.002 538.886C156.222 538.886 155.551 538.784 154.988 538.58C154.43 538.375 153.974 538.104 153.62 537.768C153.267 537.431 153.002 537.063 152.828 536.662L154.47 535.984C154.585 536.172 154.739 536.37 154.931 536.579C155.127 536.792 155.391 536.973 155.723 537.122C156.06 537.271 156.492 537.346 157.021 537.346C157.745 537.346 158.344 537.169 158.817 536.815C159.29 536.466 159.526 535.908 159.526 535.141V533.21H159.405C159.29 533.419 159.124 533.651 158.906 533.907C158.693 534.163 158.399 534.384 158.024 534.572C157.649 534.759 157.161 534.853 156.561 534.853C155.785 534.853 155.086 534.672 154.464 534.31C153.846 533.943 153.356 533.404 152.994 532.692C152.636 531.977 152.457 531.097 152.457 530.053C152.457 529.009 152.634 528.114 152.987 527.368C153.345 526.622 153.835 526.051 154.458 525.655C155.08 525.254 155.785 525.054 156.573 525.054C157.183 525.054 157.675 525.156 158.05 525.361C158.425 525.561 158.717 525.795 158.926 526.064C159.139 526.332 159.303 526.569 159.418 526.773H159.558V525.182H161.431V535.217C161.431 536.061 161.235 536.754 160.843 537.295C160.451 537.836 159.921 538.237 159.252 538.496C158.587 538.756 157.837 538.886 157.002 538.886ZM156.982 533.268C157.532 533.268 157.997 533.14 158.376 532.884C158.759 532.624 159.049 532.254 159.245 531.772C159.445 531.286 159.546 530.705 159.546 530.027C159.546 529.366 159.448 528.785 159.252 528.282C159.056 527.779 158.768 527.387 158.389 527.106C158.009 526.82 157.541 526.678 156.982 526.678C156.407 526.678 155.928 526.827 155.544 527.125C155.161 527.419 154.871 527.82 154.675 528.327C154.483 528.834 154.387 529.401 154.387 530.027C154.387 530.67 154.485 531.235 154.681 531.721C154.877 532.207 155.167 532.586 155.551 532.859C155.938 533.131 156.416 533.268 156.982 533.268Z" fill="white"/>
<rect x="0.5" y="747.5" width="313" height="55" rx="13.5" fill="url(#paint8_linear_2073_169)"/>
<rect x="0.5" y="747.5" width="313" height="55" rx="13.5" stroke="url(#paint9_linear_2073_169)"/>
<path d="M36.2259 768.909V782H34.2443V770.891H34.1676L31.0355 772.936V771.044L34.3018 768.909H36.2259ZM43.6081 782.179C42.8069 782.179 42.0868 782.026 41.4476 781.719C40.8126 781.408 40.3055 780.982 39.9263 780.44C39.547 779.899 39.3446 779.281 39.319 778.587H41.2366C41.2835 779.149 41.5328 779.612 41.9845 779.974C42.4362 780.336 42.9774 780.517 43.6081 780.517C44.1109 780.517 44.5562 780.402 44.944 780.172C45.3361 779.938 45.6429 779.616 45.8645 779.207C46.0903 778.798 46.2032 778.331 46.2032 777.807C46.2032 777.274 46.0882 776.799 45.8581 776.381C45.628 775.964 45.3105 775.636 44.9057 775.397C44.5051 775.158 44.0449 775.037 43.525 775.033C43.1287 775.033 42.7302 775.101 42.3297 775.237C41.9291 775.374 41.6052 775.553 41.3581 775.774L39.5491 775.506L40.2842 768.909H47.4816V770.603H41.927L41.5115 774.266H41.5882C41.8439 774.018 42.1826 773.812 42.6045 773.646C43.0307 773.479 43.4866 773.396 43.9724 773.396C44.7693 773.396 45.4788 773.586 46.101 773.965C46.7274 774.344 47.2196 774.862 47.5775 775.518C47.9397 776.17 48.1187 776.92 48.1145 777.768C48.1187 778.616 47.927 779.373 47.5392 780.038C47.1557 780.702 46.623 781.227 45.9412 781.61C45.2636 781.989 44.4859 782.179 43.6081 782.179ZM56.8023 779.545V778.855C56.8023 778.361 56.9045 777.909 57.1091 777.5C57.3179 777.087 57.6204 776.756 58.0167 776.509C58.4173 776.258 58.901 776.132 59.4677 776.132C60.0473 776.132 60.5331 776.256 60.9251 776.503C61.3172 776.75 61.6133 777.08 61.8136 777.494C62.0182 777.907 62.1204 778.361 62.1204 778.855V779.545C62.1204 780.04 62.0182 780.494 61.8136 780.907C61.6091 781.316 61.3086 781.646 60.9123 781.898C60.5203 782.145 60.0388 782.268 59.4677 782.268C58.8925 782.268 58.4067 782.145 58.0103 781.898C57.614 781.646 57.3136 781.316 57.1091 780.907C56.9045 780.494 56.8023 780.04 56.8023 779.545ZM58.2916 778.855V779.545C58.2916 779.912 58.379 780.244 58.5537 780.543C58.7284 780.841 59.0331 780.99 59.4677 780.99C59.8981 780.99 60.1986 780.841 60.369 780.543C60.5395 780.244 60.6247 779.912 60.6247 779.545V778.855C60.6247 778.489 60.5416 778.156 60.3754 777.858C60.2135 777.56 59.9109 777.411 59.4677 777.411C59.0416 777.411 58.739 777.56 58.5601 777.858C58.3811 778.156 58.2916 778.489 58.2916 778.855ZM50.2184 772.054V771.364C50.2184 770.869 50.3207 770.415 50.5253 770.002C50.7341 769.589 51.0366 769.259 51.4329 769.011C51.8335 768.764 52.3172 768.641 52.8839 768.641C53.4635 768.641 53.9493 768.764 54.3413 769.011C54.7334 769.259 55.0295 769.589 55.2298 770.002C55.4301 770.415 55.5302 770.869 55.5302 771.364V772.054C55.5302 772.548 55.428 773.002 55.2234 773.415C55.0231 773.825 54.7248 774.155 54.3285 774.406C53.9365 774.653 53.455 774.777 52.8839 774.777C52.3044 774.777 51.8165 774.653 51.4202 774.406C51.0281 774.155 50.7298 773.825 50.5253 773.415C50.3207 773.002 50.2184 772.548 50.2184 772.054ZM51.7142 771.364V772.054C51.7142 772.42 51.7994 772.753 51.9699 773.051C52.1446 773.349 52.4493 773.499 52.8839 773.499C53.3101 773.499 53.6084 773.349 53.7788 773.051C53.9535 772.753 54.0409 772.42 54.0409 772.054V771.364C54.0409 770.997 53.9578 770.665 53.7916 770.366C53.6254 770.068 53.3228 769.919 52.8839 769.919C52.4578 769.919 52.1552 770.068 51.9763 770.366C51.8015 770.665 51.7142 770.997 51.7142 771.364ZM50.8257 782L59.8257 768.909H61.3534L52.3534 782H50.8257ZM74.4894 774.624V776.286H68.6855V774.624H74.4894ZM80.9938 782V768.909H89.2011V770.609H82.9689V774.598H88.7729V776.292H82.9689V780.3H89.2778V782H80.9938ZM95.3417 782.198C94.3914 782.198 93.5732 781.983 92.8872 781.553C92.2053 781.118 91.6812 780.519 91.3147 779.756C90.9482 778.994 90.765 778.12 90.765 777.136C90.765 776.138 90.9525 775.259 91.3275 774.496C91.7025 773.729 92.2309 773.13 92.9127 772.7C93.5945 772.269 94.3978 772.054 95.3225 772.054C96.0683 772.054 96.733 772.192 97.3168 772.469C97.9007 772.742 98.3715 773.126 98.7295 773.62C99.0917 774.114 99.3069 774.692 99.3751 775.352H97.515C97.4127 774.892 97.1784 774.496 96.8119 774.163C96.4497 773.831 95.9639 773.665 95.3545 773.665C94.8218 773.665 94.3552 773.805 93.9546 774.087C93.5583 774.364 93.2494 774.76 93.0278 775.276C92.8062 775.787 92.6954 776.392 92.6954 777.091C92.6954 777.807 92.8041 778.425 93.0214 778.945C93.2387 779.464 93.5455 779.867 93.9418 780.153C94.3424 780.438 94.8133 780.581 95.3545 780.581C95.7167 780.581 96.0448 780.515 96.3389 780.383C96.6372 780.246 96.8864 780.053 97.0867 779.801C97.2913 779.55 97.434 779.247 97.515 778.893H99.3751C99.3069 779.528 99.1002 780.095 98.7551 780.594C98.4099 781.092 97.9475 781.484 97.368 781.77C96.7927 782.055 96.1173 782.198 95.3417 782.198ZM105.075 782.198C104.154 782.198 103.351 781.987 102.665 781.565C101.979 781.143 101.446 780.553 101.067 779.795C100.688 779.036 100.498 778.15 100.498 777.136C100.498 776.117 100.688 775.227 101.067 774.464C101.446 773.701 101.979 773.109 102.665 772.687C103.351 772.265 104.154 772.054 105.075 772.054C105.995 772.054 106.798 772.265 107.484 772.687C108.17 773.109 108.703 773.701 109.082 774.464C109.462 775.227 109.651 776.117 109.651 777.136C109.651 778.15 109.462 779.036 109.082 779.795C108.703 780.553 108.17 781.143 107.484 781.565C106.798 781.987 105.995 782.198 105.075 782.198ZM105.081 780.594C105.678 780.594 106.172 780.436 106.564 780.121C106.956 779.805 107.246 779.386 107.433 778.862C107.625 778.337 107.721 777.76 107.721 777.129C107.721 776.503 107.625 775.928 107.433 775.403C107.246 774.875 106.956 774.451 106.564 774.131C106.172 773.812 105.678 773.652 105.081 773.652C104.48 773.652 103.982 773.812 103.585 774.131C103.193 774.451 102.901 774.875 102.71 775.403C102.522 775.928 102.428 776.503 102.428 777.129C102.428 777.76 102.522 778.337 102.71 778.862C102.901 779.386 103.193 779.805 103.585 780.121C103.982 780.436 104.48 780.594 105.081 780.594ZM118.662 774.579L116.93 774.886C116.857 774.664 116.742 774.453 116.584 774.253C116.431 774.053 116.222 773.888 115.958 773.761C115.694 773.633 115.364 773.569 114.967 773.569C114.426 773.569 113.974 773.69 113.612 773.933C113.25 774.172 113.069 774.481 113.069 774.86C113.069 775.188 113.19 775.452 113.433 775.653C113.676 775.853 114.068 776.017 114.609 776.145L116.169 776.503C117.072 776.712 117.746 777.033 118.189 777.468C118.632 777.903 118.854 778.467 118.854 779.162C118.854 779.75 118.683 780.274 118.342 780.734C118.006 781.19 117.535 781.548 116.93 781.808C116.329 782.068 115.632 782.198 114.839 782.198C113.74 782.198 112.843 781.964 112.148 781.495C111.454 781.022 111.028 780.351 110.87 779.482L112.717 779.2C112.832 779.682 113.069 780.046 113.427 780.293C113.785 780.536 114.251 780.658 114.827 780.658C115.453 780.658 115.954 780.528 116.329 780.268C116.704 780.004 116.891 779.682 116.891 779.303C116.891 778.996 116.776 778.738 116.546 778.529C116.32 778.32 115.973 778.163 115.504 778.056L113.842 777.692C112.926 777.483 112.249 777.151 111.81 776.695C111.375 776.239 111.158 775.661 111.158 774.962C111.158 774.383 111.32 773.876 111.643 773.441C111.967 773.006 112.415 772.668 112.986 772.425C113.557 772.178 114.211 772.054 114.948 772.054C116.009 772.054 116.844 772.284 117.454 772.744C118.063 773.2 118.466 773.812 118.662 774.579ZM121.683 785.682C121.398 785.682 121.138 785.658 120.903 785.612C120.669 785.569 120.494 785.522 120.379 785.471L120.839 783.905C121.189 783.999 121.5 784.039 121.773 784.026C122.045 784.013 122.286 783.911 122.495 783.719C122.708 783.528 122.895 783.214 123.057 782.78L123.294 782.128L119.702 772.182H121.747L124.234 779.801H124.336L126.822 772.182H128.874L124.828 783.31C124.641 783.822 124.402 784.254 124.112 784.608C123.822 784.966 123.477 785.234 123.077 785.413C122.676 785.592 122.212 785.682 121.683 785.682ZM137.548 774.579L135.815 774.886C135.743 774.664 135.628 774.453 135.47 774.253C135.317 774.053 135.108 773.888 134.844 773.761C134.58 773.633 134.249 773.569 133.853 773.569C133.312 773.569 132.86 773.69 132.498 773.933C132.136 774.172 131.955 774.481 131.955 774.86C131.955 775.188 132.076 775.452 132.319 775.653C132.562 775.853 132.954 776.017 133.495 776.145L135.055 776.503C135.958 776.712 136.631 777.033 137.075 777.468C137.518 777.903 137.739 778.467 137.739 779.162C137.739 779.75 137.569 780.274 137.228 780.734C136.891 781.19 136.42 781.548 135.815 781.808C135.214 782.068 134.518 782.198 133.725 782.198C132.626 782.198 131.729 781.964 131.034 781.495C130.339 781.022 129.913 780.351 129.756 779.482L131.603 779.2C131.718 779.682 131.955 780.046 132.313 780.293C132.67 780.536 133.137 780.658 133.712 780.658C134.339 780.658 134.839 780.528 135.214 780.268C135.589 780.004 135.777 779.682 135.777 779.303C135.777 778.996 135.662 778.738 135.432 778.529C135.206 778.32 134.859 778.163 134.39 778.056L132.728 777.692C131.812 777.483 131.134 777.151 130.695 776.695C130.261 776.239 130.043 775.661 130.043 774.962C130.043 774.383 130.205 773.876 130.529 773.441C130.853 773.006 131.3 772.668 131.871 772.425C132.442 772.178 133.097 772.054 133.834 772.054C134.895 772.054 135.73 772.284 136.339 772.744C136.949 773.2 137.352 773.812 137.548 774.579ZM143.944 772.182V773.716H138.581V772.182H143.944ZM140.019 769.83H141.93V779.117C141.93 779.488 141.986 779.767 142.097 779.955C142.207 780.138 142.35 780.263 142.525 780.332C142.704 780.396 142.898 780.428 143.106 780.428C143.26 780.428 143.394 780.417 143.509 780.396C143.624 780.374 143.714 780.357 143.778 780.344L144.123 781.923C144.012 781.966 143.854 782.009 143.65 782.051C143.445 782.098 143.19 782.124 142.883 782.128C142.38 782.136 141.911 782.047 141.477 781.859C141.042 781.672 140.69 781.382 140.422 780.99C140.153 780.598 140.019 780.106 140.019 779.513V769.83ZM149.704 782.198C148.737 782.198 147.904 781.991 147.205 781.578C146.51 781.161 145.973 780.575 145.594 779.82C145.219 779.062 145.031 778.173 145.031 777.155C145.031 776.149 145.219 775.263 145.594 774.496C145.973 773.729 146.502 773.13 147.179 772.7C147.861 772.269 148.658 772.054 149.57 772.054C150.124 772.054 150.661 772.146 151.181 772.329C151.701 772.512 152.167 772.8 152.58 773.192C152.994 773.584 153.32 774.093 153.558 774.719C153.797 775.342 153.916 776.098 153.916 776.989V777.666H146.112V776.234H152.044C152.044 775.732 151.941 775.286 151.737 774.898C151.532 774.506 151.245 774.197 150.874 773.972C150.507 773.746 150.077 773.633 149.583 773.633C149.046 773.633 148.577 773.765 148.176 774.029C147.78 774.289 147.473 774.63 147.256 775.052C147.043 775.469 146.936 775.923 146.936 776.413V777.532C146.936 778.188 147.051 778.746 147.281 779.207C147.516 779.667 147.842 780.018 148.259 780.261C148.677 780.5 149.165 780.619 149.723 780.619C150.085 780.619 150.416 780.568 150.714 780.466C151.012 780.359 151.27 780.202 151.487 779.993C151.705 779.784 151.871 779.526 151.986 779.219L153.795 779.545C153.65 780.078 153.39 780.545 153.015 780.945C152.644 781.342 152.178 781.651 151.615 781.872C151.057 782.089 150.42 782.198 149.704 782.198ZM155.557 782V772.182H157.392V773.78H157.513C157.717 773.239 158.052 772.817 158.517 772.514C158.981 772.207 159.537 772.054 160.185 772.054C160.841 772.054 161.391 772.207 161.834 772.514C162.281 772.821 162.612 773.243 162.825 773.78H162.927C163.161 773.256 163.534 772.838 164.046 772.527C164.557 772.212 165.166 772.054 165.874 772.054C166.764 772.054 167.491 772.333 168.053 772.891C168.62 773.45 168.904 774.291 168.904 775.416V782H166.992V775.595C166.992 774.93 166.811 774.449 166.449 774.151C166.087 773.852 165.654 773.703 165.151 773.703C164.529 773.703 164.046 773.895 163.7 774.278C163.355 774.658 163.183 775.146 163.183 775.742V782H161.278V775.474C161.278 774.941 161.112 774.513 160.779 774.189C160.447 773.865 160.014 773.703 159.482 773.703C159.119 773.703 158.785 773.799 158.478 773.991C158.176 774.178 157.931 774.44 157.743 774.777C157.56 775.114 157.468 775.504 157.468 775.947V782H155.557ZM179.66 782H175.422V768.909H179.794C181.077 768.909 182.179 769.171 183.099 769.695C184.02 770.215 184.725 770.963 185.215 771.939C185.709 772.911 185.956 774.076 185.956 775.435C185.956 776.799 185.707 777.971 185.209 778.951C184.714 779.931 183.998 780.685 183.061 781.214C182.123 781.738 180.99 782 179.66 782ZM177.397 780.274H179.552C180.549 780.274 181.378 780.087 182.038 779.712C182.699 779.332 183.193 778.785 183.521 778.069C183.849 777.349 184.013 776.471 184.013 775.435C184.013 774.408 183.849 773.537 183.521 772.821C183.197 772.105 182.713 771.562 182.07 771.191C181.427 770.82 180.628 770.635 179.673 770.635H177.397V780.274ZM192.011 782.198C191.043 782.198 190.21 781.991 189.511 781.578C188.817 781.161 188.28 780.575 187.901 779.82C187.526 779.062 187.338 778.173 187.338 777.155C187.338 776.149 187.526 775.263 187.901 774.496C188.28 773.729 188.808 773.13 189.486 772.7C190.168 772.269 190.964 772.054 191.876 772.054C192.43 772.054 192.967 772.146 193.487 772.329C194.007 772.512 194.474 772.8 194.887 773.192C195.3 773.584 195.626 774.093 195.865 774.719C196.104 775.342 196.223 776.098 196.223 776.989V777.666H188.418V776.234H194.35C194.35 775.732 194.248 775.286 194.043 774.898C193.839 774.506 193.551 774.197 193.18 773.972C192.814 773.746 192.383 773.633 191.889 773.633C191.352 773.633 190.883 773.765 190.483 774.029C190.087 774.289 189.78 774.63 189.562 775.052C189.349 775.469 189.243 775.923 189.243 776.413V777.532C189.243 778.188 189.358 778.746 189.588 779.207C189.822 779.667 190.148 780.018 190.566 780.261C190.984 780.5 191.472 780.619 192.03 780.619C192.392 780.619 192.722 780.568 193.021 780.466C193.319 780.359 193.577 780.202 193.794 779.993C194.011 779.784 194.178 779.526 194.293 779.219L196.102 779.545C195.957 780.078 195.697 780.545 195.322 780.945C194.951 781.342 194.484 781.651 193.922 781.872C193.364 782.089 192.727 782.198 192.011 782.198ZM205.981 772.182L202.421 782H200.376L196.809 772.182H198.861L201.347 779.737H201.449L203.93 772.182H205.981ZM211.195 782.198C210.228 782.198 209.395 781.991 208.696 781.578C208.001 781.161 207.464 780.575 207.085 779.82C206.71 779.062 206.523 778.173 206.523 777.155C206.523 776.149 206.71 775.263 207.085 774.496C207.464 773.729 207.993 773.13 208.67 772.7C209.352 772.269 210.149 772.054 211.061 772.054C211.615 772.054 212.152 772.146 212.672 772.329C213.192 772.512 213.658 772.8 214.072 773.192C214.485 773.584 214.811 774.093 215.05 774.719C215.288 775.342 215.408 776.098 215.408 776.989V777.666H207.603V776.234H213.535C213.535 775.732 213.432 775.286 213.228 774.898C213.023 774.506 212.736 774.197 212.365 773.972C211.998 773.746 211.568 773.633 211.074 773.633C210.537 773.633 210.068 773.765 209.667 774.029C209.271 774.289 208.964 774.63 208.747 775.052C208.534 775.469 208.427 775.923 208.427 776.413V777.532C208.427 778.188 208.542 778.746 208.773 779.207C209.007 779.667 209.333 780.018 209.751 780.261C210.168 780.5 210.656 780.619 211.214 780.619C211.577 780.619 211.907 780.568 212.205 780.466C212.503 780.359 212.761 780.202 212.979 779.993C213.196 779.784 213.362 779.526 213.477 779.219L215.286 779.545C215.141 780.078 214.881 780.545 214.506 780.945C214.136 781.342 213.669 781.651 213.106 781.872C212.548 782.089 211.911 782.198 211.195 782.198ZM218.959 768.909V782H217.048V768.909H218.959ZM225.186 782.198C224.266 782.198 223.462 781.987 222.776 781.565C222.09 781.143 221.558 780.553 221.178 779.795C220.799 779.036 220.609 778.15 220.609 777.136C220.609 776.117 220.799 775.227 221.178 774.464C221.558 773.701 222.09 773.109 222.776 772.687C223.462 772.265 224.266 772.054 225.186 772.054C226.107 772.054 226.91 772.265 227.596 772.687C228.282 773.109 228.815 773.701 229.194 774.464C229.573 775.227 229.763 776.117 229.763 777.136C229.763 778.15 229.573 779.036 229.194 779.795C228.815 780.553 228.282 781.143 227.596 781.565C226.91 781.987 226.107 782.198 225.186 782.198ZM225.193 780.594C225.789 780.594 226.283 780.436 226.676 780.121C227.068 779.805 227.357 779.386 227.545 778.862C227.737 778.337 227.832 777.76 227.832 777.129C227.832 776.503 227.737 775.928 227.545 775.403C227.357 774.875 227.068 774.451 226.676 774.131C226.283 773.812 225.789 773.652 225.193 773.652C224.592 773.652 224.093 773.812 223.697 774.131C223.305 774.451 223.013 774.875 222.821 775.403C222.634 775.928 222.54 776.503 222.54 777.129C222.54 777.76 222.634 778.337 222.821 778.862C223.013 779.386 223.305 779.805 223.697 780.121C224.093 780.436 224.592 780.594 225.193 780.594ZM231.416 785.682V772.182H233.283V773.773H233.442C233.553 773.569 233.713 773.332 233.922 773.064C234.131 772.795 234.42 772.561 234.791 772.361C235.162 772.156 235.652 772.054 236.261 772.054C237.054 772.054 237.761 772.254 238.384 772.655C239.006 773.055 239.494 773.633 239.847 774.387C240.205 775.141 240.384 776.049 240.384 777.11C240.384 778.171 240.207 779.081 239.854 779.839C239.5 780.594 239.014 781.175 238.396 781.585C237.778 781.989 237.073 782.192 236.281 782.192C235.684 782.192 235.196 782.092 234.817 781.891C234.442 781.691 234.148 781.457 233.935 781.188C233.722 780.92 233.558 780.681 233.442 780.472H233.327V785.682H231.416ZM233.289 777.091C233.289 777.781 233.389 778.386 233.59 778.906C233.79 779.426 234.08 779.833 234.459 780.127C234.838 780.417 235.303 780.562 235.852 780.562C236.423 780.562 236.901 780.411 237.284 780.108C237.668 779.801 237.957 779.386 238.153 778.862C238.354 778.337 238.454 777.747 238.454 777.091C238.454 776.443 238.356 775.862 238.16 775.346C237.968 774.83 237.678 774.423 237.29 774.125C236.907 773.827 236.428 773.678 235.852 773.678C235.298 773.678 234.83 773.82 234.446 774.106C234.067 774.391 233.779 774.79 233.583 775.301C233.387 775.812 233.289 776.409 233.289 777.091ZM242.046 782V772.182H243.88V773.78H244.002C244.206 773.239 244.541 772.817 245.005 772.514C245.47 772.207 246.026 772.054 246.673 772.054C247.33 772.054 247.879 772.207 248.323 772.514C248.77 772.821 249.1 773.243 249.313 773.78H249.416C249.65 773.256 250.023 772.838 250.534 772.527C251.046 772.212 251.655 772.054 252.362 772.054C253.253 772.054 253.98 772.333 254.542 772.891C255.109 773.45 255.392 774.291 255.392 775.416V782H253.481V775.595C253.481 774.93 253.3 774.449 252.938 774.151C252.575 773.852 252.143 773.703 251.64 773.703C251.018 773.703 250.534 773.895 250.189 774.278C249.844 774.658 249.671 775.146 249.671 775.742V782H247.766V775.474C247.766 774.941 247.6 774.513 247.268 774.189C246.936 773.865 246.503 773.703 245.97 773.703C245.608 773.703 245.274 773.799 244.967 773.991C244.664 774.178 244.419 774.44 244.232 774.777C244.048 775.114 243.957 775.504 243.957 775.947V782H242.046ZM261.705 782.198C260.738 782.198 259.905 781.991 259.206 781.578C258.511 781.161 257.974 780.575 257.595 779.82C257.22 779.062 257.033 778.173 257.033 777.155C257.033 776.149 257.22 775.263 257.595 774.496C257.974 773.729 258.503 773.13 259.18 772.7C259.862 772.269 260.659 772.054 261.571 772.054C262.125 772.054 262.662 772.146 263.182 772.329C263.702 772.512 264.168 772.8 264.582 773.192C264.995 773.584 265.321 774.093 265.56 774.719C265.798 775.342 265.918 776.098 265.918 776.989V777.666H258.113V776.234H264.045C264.045 775.732 263.943 775.286 263.738 774.898C263.533 774.506 263.246 774.197 262.875 773.972C262.509 773.746 262.078 773.633 261.584 773.633C261.047 773.633 260.578 773.765 260.178 774.029C259.781 774.289 259.474 774.63 259.257 775.052C259.044 775.469 258.938 775.923 258.938 776.413V777.532C258.938 778.188 259.053 778.746 259.283 779.207C259.517 779.667 259.843 780.018 260.261 780.261C260.678 780.5 261.166 780.619 261.724 780.619C262.087 780.619 262.417 780.568 262.715 780.466C263.014 780.359 263.271 780.202 263.489 779.993C263.706 779.784 263.872 779.526 263.987 779.219L265.796 779.545C265.651 780.078 265.391 780.545 265.016 780.945C264.646 781.342 264.179 781.651 263.617 781.872C263.058 782.089 262.421 782.198 261.705 782.198ZM269.469 776.17V782H267.558V772.182H269.393V773.78H269.514C269.74 773.26 270.094 772.842 270.575 772.527C271.061 772.212 271.673 772.054 272.41 772.054C273.079 772.054 273.665 772.195 274.168 772.476C274.67 772.753 275.06 773.166 275.337 773.716C275.614 774.266 275.753 774.945 275.753 775.755V782H273.842V775.985C273.842 775.273 273.656 774.717 273.286 774.317C272.915 773.912 272.406 773.71 271.758 773.71C271.315 773.71 270.92 773.805 270.575 773.997C270.234 774.189 269.964 774.47 269.763 774.841C269.567 775.207 269.469 775.651 269.469 776.17ZM282.419 772.182V773.716H277.056V772.182H282.419ZM278.494 769.83H280.406V779.117C280.406 779.488 280.461 779.767 280.572 779.955C280.683 780.138 280.825 780.263 281 780.332C281.179 780.396 281.373 780.428 281.582 780.428C281.735 780.428 281.869 780.417 281.984 780.396C282.1 780.374 282.189 780.357 282.253 780.344L282.598 781.923C282.487 781.966 282.33 782.009 282.125 782.051C281.921 782.098 281.665 782.124 281.358 782.128C280.855 782.136 280.386 782.047 279.952 781.859C279.517 781.672 279.166 781.382 278.897 780.99C278.629 780.598 278.494 780.106 278.494 779.513V769.83Z" fill="white"/>
<path d="M1076.5 527.5L1061.5 518.84V536.16L1076.5 527.5ZM977 527.5L975.946 528.568L976.384 529H977V527.5ZM937.946 491.068L940.321 493.411L942.429 491.276L940.054 488.932L937.946 491.068ZM945.071 498.099L949.821 502.786L951.929 500.651L947.179 495.964L945.071 498.099ZM954.571 507.474L959.321 512.161L961.429 510.026L956.679 505.339L954.571 507.474ZM964.071 516.849L968.821 521.536L970.929 519.401L966.179 514.714L964.071 516.849ZM973.571 526.224L975.946 528.568L978.054 526.432L975.679 524.089L973.571 526.224ZM977 529H980.109V526H977V529ZM986.328 529H992.547V526H986.328V529ZM998.766 529H1004.98V526H998.766V529ZM1011.2 529H1017.42V526H1011.2V529ZM1023.64 529H1029.86V526H1023.64V529ZM1036.08 529H1042.3V526H1036.08V529ZM1048.52 529H1054.73V526H1048.52V529ZM1060.95 529H1067.17V526H1060.95V529Z" fill="#00D8FF"/>
<path d="M246 279L261 287.66V270.34L246 279ZM375.531 279L376.445 277.81L376.041 277.5H375.531V279ZM425.914 315.81L423.44 313.91L421.613 316.29L424.086 318.19L425.914 315.81ZM418.493 310.11L413.546 306.31L411.719 308.69L416.666 312.49L418.493 310.11ZM408.6 302.51L403.653 298.71L401.825 301.09L406.772 304.89L408.6 302.51ZM398.706 294.91L393.759 291.11L391.931 293.49L396.878 297.29L398.706 294.91ZM388.812 287.31L383.865 283.51L382.038 285.89L386.984 289.69L388.812 287.31ZM378.918 279.71L376.445 277.81L374.617 280.19L377.091 282.09L378.918 279.71ZM375.531 277.5H372.587V280.5H375.531V277.5ZM366.699 277.5H360.811V280.5H366.699V277.5ZM354.924 277.5H349.036V280.5H354.924V277.5ZM343.148 277.5H337.26V280.5H343.148V277.5ZM331.373 277.5H325.485V280.5H331.373V277.5ZM319.597 277.5H313.709V280.5H319.597V277.5ZM307.822 277.5H301.934V280.5H307.822V277.5ZM296.046 277.5H290.158V280.5H296.046V277.5ZM284.27 277.5H278.383V280.5H284.27V277.5ZM272.495 277.5H266.607V280.5H272.495V277.5ZM260.719 277.5H254.832V280.5H260.719V277.5Z" fill="#00D8FF"/>
<path d="M201 525L216 516.34V533.66L201 525ZM318.229 525L319.119 526.207L318.722 526.5H318.229V525ZM363.89 493.207L361.651 494.857L359.871 492.443L362.11 490.793L363.89 493.207ZM357.174 498.157L352.697 501.457L350.917 499.043L355.394 495.743L357.174 498.157ZM348.22 504.757L343.743 508.057L341.963 505.643L346.44 502.343L348.22 504.757ZM339.266 511.357L334.789 514.657L333.009 512.243L337.486 508.943L339.266 511.357ZM330.312 517.957L325.835 521.257L324.055 518.843L328.532 515.543L330.312 517.957ZM321.358 524.557L319.119 526.207L317.339 523.793L319.578 522.143L321.358 524.557ZM318.229 526.5H315.298V523.5H318.229V526.5ZM309.437 526.5H303.575V523.5H309.437V526.5ZM297.714 526.5H291.853V523.5H297.714V526.5ZM285.991 526.5H280.13V523.5H285.991V526.5ZM274.268 526.5H268.407V523.5H274.268V526.5ZM262.545 526.5H256.684V523.5H262.545V526.5ZM250.822 526.5H244.961V523.5H250.822V526.5ZM239.099 526.5H233.238V523.5H239.099V526.5ZM227.377 526.5H221.515V523.5H227.377V526.5ZM215.654 526.5H209.792V523.5H215.654V526.5Z" fill="#00D8FF"/>
<path d="M325 775L340 766.34V783.66L325 775ZM406.771 775L407.93 775.952L407.48 776.5H406.771V775ZM439.159 737.952L437.207 740.327L434.889 738.423L436.841 736.048L439.159 737.952ZM433.303 745.077L429.4 749.827L427.082 747.923L430.986 743.173L433.303 745.077ZM425.496 754.577L421.593 759.327L419.275 757.423L423.178 752.673L425.496 754.577ZM417.689 764.077L413.785 768.827L411.467 766.923L415.371 762.173L417.689 764.077ZM409.882 773.577L407.93 775.952L405.612 774.048L407.564 771.673L409.882 773.577ZM406.771 776.5H403.851V773.5H406.771V776.5ZM398.01 776.5H392.169V773.5H398.01V776.5ZM386.328 776.5H380.487V773.5H386.328V776.5ZM374.647 776.5H368.806V773.5H374.647V776.5ZM362.965 776.5H357.124V773.5H362.965V776.5ZM351.284 776.5H345.443V773.5H351.284V776.5ZM339.602 776.5H333.761V773.5H339.602V776.5Z" fill="#00D8FF"/>
<path d="M641 64L632.34 79H649.66L641 64ZM641 184.847L642.158 185.801L642.5 185.385V184.847H641ZM604.158 231.953L606.058 229.646L603.742 227.739L601.842 230.047L604.158 231.953ZM609.858 225.031L613.658 220.415L611.342 218.508L607.542 223.124L609.858 225.031ZM617.458 215.8L621.258 211.185L618.942 209.278L615.142 213.893L617.458 215.8ZM625.058 206.569L628.858 201.954L626.542 200.047L622.742 204.663L625.058 206.569ZM632.658 197.339L636.458 192.724L634.142 190.817L630.342 195.432L632.658 197.339ZM640.258 188.108L642.158 185.801L639.842 183.894L637.942 186.201L640.258 188.108ZM642.5 184.847V181.826H639.5V184.847H642.5ZM642.5 175.784V169.741H639.5V175.784H642.5ZM642.5 163.699V157.657H639.5V163.699H642.5ZM642.5 151.614V145.572H639.5V151.614H642.5ZM642.5 139.53V133.487H639.5V139.53H642.5ZM642.5 127.445V121.402H639.5V127.445H642.5ZM642.5 115.36V109.318H639.5V115.36H642.5ZM642.5 103.275V97.233H639.5V103.275H642.5ZM642.5 91.1906V85.1483H639.5V91.1906H642.5ZM642.5 79.1059V73.0635H639.5V79.1059H642.5Z" fill="#00D8FF"/>
<defs>
<linearGradient id="paint0_linear_2073_169" x1="518.293" y1="24.1569" x2="768.5" y2="24.1569" gradientUnits="userSpaceOnUse">
<stop stop-color="#094037"/>
<stop offset="1" stop-color="#00D8FF"/>
</linearGradient>
<linearGradient id="paint1_linear_2073_169" x1="639" y1="0" x2="639" y2="56" gradientUnits="userSpaceOnUse">
<stop stop-color="#6971A2" stop-opacity="0.4"/>
<stop offset="1" stop-color="#272A3C" stop-opacity="0.5"/>
</linearGradient>
<linearGradient id="paint2_linear_2073_169" x1="1088.57" y1="523.157" x2="1304" y2="523.157" gradientUnits="userSpaceOnUse">
<stop stop-color="#094037"/>
<stop offset="1" stop-color="#00D8FF"/>
</linearGradient>
<linearGradient id="paint3_linear_2073_169" x1="1192.5" y1="499" x2="1192.5" y2="555" gradientUnits="userSpaceOnUse">
<stop stop-color="#6971A2" stop-opacity="0.4"/>
<stop offset="1" stop-color="#272A3C" stop-opacity="0.5"/>
</linearGradient>
<linearGradient id="paint4_linear_2073_169" x1="8.0463" y1="275.157" x2="237" y2="275.157" gradientUnits="userSpaceOnUse">
<stop stop-color="#00D8FF"/>
<stop offset="1" stop-color="#094037"/>
</linearGradient>
<linearGradient id="paint5_linear_2073_169" x1="118.5" y1="251" x2="118.5" y2="307" gradientUnits="userSpaceOnUse">
<stop stop-color="#6971A2" stop-opacity="0.4"/>
<stop offset="1" stop-color="#272A3C" stop-opacity="0.5"/>
</linearGradient>
<linearGradient id="paint6_linear_2073_169" x1="6.55247" y1="524.157" x2="193" y2="524.157" gradientUnits="userSpaceOnUse">
<stop stop-color="#00D8FF"/>
<stop offset="1" stop-color="#094037"/>
</linearGradient>
<linearGradient id="paint7_linear_2073_169" x1="96.5" y1="500" x2="96.5" y2="556" gradientUnits="userSpaceOnUse">
<stop stop-color="#6971A2" stop-opacity="0.4"/>
<stop offset="1" stop-color="#272A3C" stop-opacity="0.5"/>
</linearGradient>
<linearGradient id="paint8_linear_2073_169" x1="10.6605" y1="771.157" x2="314" y2="771.157" gradientUnits="userSpaceOnUse">
<stop stop-color="#00D8FF"/>
<stop offset="1" stop-color="#094037"/>
</linearGradient>
<linearGradient id="paint9_linear_2073_169" x1="157" y1="747" x2="157" y2="803" gradientUnits="userSpaceOnUse">
<stop stop-color="#6971A2" stop-opacity="0.4"/>
<stop offset="1" stop-color="#272A3C" stop-opacity="0.5"/>
</linearGradient>
</defs>
</svg>
